<?xml version="1.0" encoding="utf-8" standalone="no"?>
<!DOCTYPE svg PUBLIC "-//W3C//DTD SVG 1.1//EN"
  "http://www.w3.org/Graphics/SVG/1.1/DTD/svg11.dtd">
<svg xmlns:xlink="http://www.w3.org/1999/xlink" width="358.446638pt" height="325.986375pt" viewBox="0 0 358.446638 325.986375" xmlns="http://www.w3.org/2000/svg" version="1.1">
 <metadata>
  <rdf:RDF xmlns:dc="http://purl.org/dc/elements/1.1/" xmlns:cc="http://creativecommons.org/ns#" xmlns:rdf="http://www.w3.org/1999/02/22-rdf-syntax-ns#">
   <cc:Work>
    <dc:type rdf:resource="http://purl.org/dc/dcmitype/StillImage"/>
    <dc:date>2024-12-13T09:21:04.905967</dc:date>
    <dc:format>image/svg+xml</dc:format>
    <dc:creator>
     <cc:Agent>
      <dc:title>Matplotlib v3.9.2, https://matplotlib.org/</dc:title>
     </cc:Agent>
    </dc:creator>
   </cc:Work>
  </rdf:RDF>
 </metadata>
 <defs>
  <style type="text/css">*{stroke-linejoin: round; stroke-linecap: butt}</style>
 </defs>
 <g id="figure_1">
  <g id="patch_1">
   <path d="M 0 325.986375 
L 358.446638 325.986375 
L 358.446638 0 
L 0 0 
z
" style="fill: #ffffff"/>
  </g>
  <g id="axes_1">
   <g id="patch_2">
    <path d="M 58.523438 288.430125 
L 351.246638 288.430125 
L 351.246638 22.318125 
L 58.523438 22.318125 
z
" style="fill: #ffffff"/>
   </g>
   <g id="matplotlib.axis_1">
    <g id="xtick_1">
     <g id="line2d_1">
      <path d="M 71.829038 288.430125 
L 71.829038 22.318125 
" clip-path="url(#p8189c7ca8e)" style="fill: none; stroke: #b0b0b0; stroke-width: 0.8; stroke-linecap: square"/>
     </g>
     <g id="line2d_2">
      <defs>
       <path id="m2bf79d2fc4" d="M 0 0 
L 0 3.5 
" style="stroke: #000000; stroke-width: 0.8"/>
      </defs>
      <g>
       <use xlink:href="#m2bf79d2fc4" x="71.829038" y="288.430125" style="stroke: #000000; stroke-width: 0.8"/>
      </g>
     </g>
     <g id="text_1">
      <!-- 0.00 -->
      <g transform="translate(60.696225 303.028562) scale(0.1 -0.1)">
       <defs>
        <path id="DejaVuSans-30" d="M 2034 4250 
Q 1547 4250 1301 3770 
Q 1056 3291 1056 2328 
Q 1056 1369 1301 889 
Q 1547 409 2034 409 
Q 2525 409 2770 889 
Q 3016 1369 3016 2328 
Q 3016 3291 2770 3770 
Q 2525 4250 2034 4250 
z
M 2034 4750 
Q 2819 4750 3233 4129 
Q 3647 3509 3647 2328 
Q 3647 1150 3233 529 
Q 2819 -91 2034 -91 
Q 1250 -91 836 529 
Q 422 1150 422 2328 
Q 422 3509 836 4129 
Q 1250 4750 2034 4750 
z
" transform="scale(0.015625)"/>
        <path id="DejaVuSans-2e" d="M 684 794 
L 1344 794 
L 1344 0 
L 684 0 
L 684 794 
z
" transform="scale(0.015625)"/>
       </defs>
       <use xlink:href="#DejaVuSans-30"/>
       <use xlink:href="#DejaVuSans-2e" x="63.623047"/>
       <use xlink:href="#DejaVuSans-30" x="95.410156"/>
       <use xlink:href="#DejaVuSans-30" x="159.033203"/>
      </g>
     </g>
    </g>
    <g id="xtick_2">
     <g id="line2d_3">
      <path d="M 105.093038 288.430125 
L 105.093038 22.318125 
" clip-path="url(#p8189c7ca8e)" style="fill: none; stroke: #b0b0b0; stroke-width: 0.8; stroke-linecap: square"/>
     </g>
     <g id="line2d_4">
      <g>
       <use xlink:href="#m2bf79d2fc4" x="105.093038" y="288.430125" style="stroke: #000000; stroke-width: 0.8"/>
      </g>
     </g>
     <g id="text_2">
      <!-- 0.25 -->
      <g transform="translate(93.960225 303.028562) scale(0.1 -0.1)">
       <defs>
        <path id="DejaVuSans-32" d="M 1228 531 
L 3431 531 
L 3431 0 
L 469 0 
L 469 531 
Q 828 903 1448 1529 
Q 2069 2156 2228 2338 
Q 2531 2678 2651 2914 
Q 2772 3150 2772 3378 
Q 2772 3750 2511 3984 
Q 2250 4219 1831 4219 
Q 1534 4219 1204 4116 
Q 875 4013 500 3803 
L 500 4441 
Q 881 4594 1212 4672 
Q 1544 4750 1819 4750 
Q 2544 4750 2975 4387 
Q 3406 4025 3406 3419 
Q 3406 3131 3298 2873 
Q 3191 2616 2906 2266 
Q 2828 2175 2409 1742 
Q 1991 1309 1228 531 
z
" transform="scale(0.015625)"/>
        <path id="DejaVuSans-35" d="M 691 4666 
L 3169 4666 
L 3169 4134 
L 1269 4134 
L 1269 2991 
Q 1406 3038 1543 3061 
Q 1681 3084 1819 3084 
Q 2600 3084 3056 2656 
Q 3513 2228 3513 1497 
Q 3513 744 3044 326 
Q 2575 -91 1722 -91 
Q 1428 -91 1123 -41 
Q 819 9 494 109 
L 494 744 
Q 775 591 1075 516 
Q 1375 441 1709 441 
Q 2250 441 2565 725 
Q 2881 1009 2881 1497 
Q 2881 1984 2565 2268 
Q 2250 2553 1709 2553 
Q 1456 2553 1204 2497 
Q 953 2441 691 2322 
L 691 4666 
z
" transform="scale(0.015625)"/>
       </defs>
       <use xlink:href="#DejaVuSans-30"/>
       <use xlink:href="#DejaVuSans-2e" x="63.623047"/>
       <use xlink:href="#DejaVuSans-32" x="95.410156"/>
       <use xlink:href="#DejaVuSans-35" x="159.033203"/>
      </g>
     </g>
    </g>
    <g id="xtick_3">
     <g id="line2d_5">
      <path d="M 138.357038 288.430125 
L 138.357038 22.318125 
" clip-path="url(#p8189c7ca8e)" style="fill: none; stroke: #b0b0b0; stroke-width: 0.8; stroke-linecap: square"/>
     </g>
     <g id="line2d_6">
      <g>
       <use xlink:href="#m2bf79d2fc4" x="138.357038" y="288.430125" style="stroke: #000000; stroke-width: 0.8"/>
      </g>
     </g>
     <g id="text_3">
      <!-- 0.50 -->
      <g transform="translate(127.224225 303.028562) scale(0.1 -0.1)">
       <use xlink:href="#DejaVuSans-30"/>
       <use xlink:href="#DejaVuSans-2e" x="63.623047"/>
       <use xlink:href="#DejaVuSans-35" x="95.410156"/>
       <use xlink:href="#DejaVuSans-30" x="159.033203"/>
      </g>
     </g>
    </g>
    <g id="xtick_4">
     <g id="line2d_7">
      <path d="M 171.621037 288.430125 
L 171.621037 22.318125 
" clip-path="url(#p8189c7ca8e)" style="fill: none; stroke: #b0b0b0; stroke-width: 0.8; stroke-linecap: square"/>
     </g>
     <g id="line2d_8">
      <g>
       <use xlink:href="#m2bf79d2fc4" x="171.621037" y="288.430125" style="stroke: #000000; stroke-width: 0.8"/>
      </g>
     </g>
     <g id="text_4">
      <!-- 0.75 -->
      <g transform="translate(160.488225 303.028562) scale(0.1 -0.1)">
       <defs>
        <path id="DejaVuSans-37" d="M 525 4666 
L 3525 4666 
L 3525 4397 
L 1831 0 
L 1172 0 
L 2766 4134 
L 525 4134 
L 525 4666 
z
" transform="scale(0.015625)"/>
       </defs>
       <use xlink:href="#DejaVuSans-30"/>
       <use xlink:href="#DejaVuSans-2e" x="63.623047"/>
       <use xlink:href="#DejaVuSans-37" x="95.410156"/>
       <use xlink:href="#DejaVuSans-35" x="159.033203"/>
      </g>
     </g>
    </g>
    <g id="xtick_5">
     <g id="line2d_9">
      <path d="M 204.885038 288.430125 
L 204.885038 22.318125 
" clip-path="url(#p8189c7ca8e)" style="fill: none; stroke: #b0b0b0; stroke-width: 0.8; stroke-linecap: square"/>
     </g>
     <g id="line2d_10">
      <g>
       <use xlink:href="#m2bf79d2fc4" x="204.885038" y="288.430125" style="stroke: #000000; stroke-width: 0.8"/>
      </g>
     </g>
     <g id="text_5">
      <!-- 1.00 -->
      <g transform="translate(193.752225 303.028562) scale(0.1 -0.1)">
       <defs>
        <path id="DejaVuSans-31" d="M 794 531 
L 1825 531 
L 1825 4091 
L 703 3866 
L 703 4441 
L 1819 4666 
L 2450 4666 
L 2450 531 
L 3481 531 
L 3481 0 
L 794 0 
L 794 531 
z
" transform="scale(0.015625)"/>
       </defs>
       <use xlink:href="#DejaVuSans-31"/>
       <use xlink:href="#DejaVuSans-2e" x="63.623047"/>
       <use xlink:href="#DejaVuSans-30" x="95.410156"/>
       <use xlink:href="#DejaVuSans-30" x="159.033203"/>
      </g>
     </g>
    </g>
    <g id="xtick_6">
     <g id="line2d_11">
      <path d="M 238.149038 288.430125 
L 238.149038 22.318125 
" clip-path="url(#p8189c7ca8e)" style="fill: none; stroke: #b0b0b0; stroke-width: 0.8; stroke-linecap: square"/>
     </g>
     <g id="line2d_12">
      <g>
       <use xlink:href="#m2bf79d2fc4" x="238.149038" y="288.430125" style="stroke: #000000; stroke-width: 0.8"/>
      </g>
     </g>
     <g id="text_6">
      <!-- 1.25 -->
      <g transform="translate(227.016225 303.028562) scale(0.1 -0.1)">
       <use xlink:href="#DejaVuSans-31"/>
       <use xlink:href="#DejaVuSans-2e" x="63.623047"/>
       <use xlink:href="#DejaVuSans-32" x="95.410156"/>
       <use xlink:href="#DejaVuSans-35" x="159.033203"/>
      </g>
     </g>
    </g>
    <g id="xtick_7">
     <g id="line2d_13">
      <path d="M 271.413038 288.430125 
L 271.413038 22.318125 
" clip-path="url(#p8189c7ca8e)" style="fill: none; stroke: #b0b0b0; stroke-width: 0.8; stroke-linecap: square"/>
     </g>
     <g id="line2d_14">
      <g>
       <use xlink:href="#m2bf79d2fc4" x="271.413038" y="288.430125" style="stroke: #000000; stroke-width: 0.8"/>
      </g>
     </g>
     <g id="text_7">
      <!-- 1.50 -->
      <g transform="translate(260.280225 303.028562) scale(0.1 -0.1)">
       <use xlink:href="#DejaVuSans-31"/>
       <use xlink:href="#DejaVuSans-2e" x="63.623047"/>
       <use xlink:href="#DejaVuSans-35" x="95.410156"/>
       <use xlink:href="#DejaVuSans-30" x="159.033203"/>
      </g>
     </g>
    </g>
    <g id="xtick_8">
     <g id="line2d_15">
      <path d="M 304.677038 288.430125 
L 304.677038 22.318125 
" clip-path="url(#p8189c7ca8e)" style="fill: none; stroke: #b0b0b0; stroke-width: 0.8; stroke-linecap: square"/>
     </g>
     <g id="line2d_16">
      <g>
       <use xlink:href="#m2bf79d2fc4" x="304.677038" y="288.430125" style="stroke: #000000; stroke-width: 0.8"/>
      </g>
     </g>
     <g id="text_8">
      <!-- 1.75 -->
      <g transform="translate(293.544225 303.028562) scale(0.1 -0.1)">
       <use xlink:href="#DejaVuSans-31"/>
       <use xlink:href="#DejaVuSans-2e" x="63.623047"/>
       <use xlink:href="#DejaVuSans-37" x="95.410156"/>
       <use xlink:href="#DejaVuSans-35" x="159.033203"/>
      </g>
     </g>
    </g>
    <g id="xtick_9">
     <g id="line2d_17">
      <path d="M 337.941038 288.430125 
L 337.941038 22.318125 
" clip-path="url(#p8189c7ca8e)" style="fill: none; stroke: #b0b0b0; stroke-width: 0.8; stroke-linecap: square"/>
     </g>
     <g id="line2d_18">
      <g>
       <use xlink:href="#m2bf79d2fc4" x="337.941038" y="288.430125" style="stroke: #000000; stroke-width: 0.8"/>
      </g>
     </g>
     <g id="text_9">
      <!-- 2.00 -->
      <g transform="translate(326.808225 303.028562) scale(0.1 -0.1)">
       <use xlink:href="#DejaVuSans-32"/>
       <use xlink:href="#DejaVuSans-2e" x="63.623047"/>
       <use xlink:href="#DejaVuSans-30" x="95.410156"/>
       <use xlink:href="#DejaVuSans-30" x="159.033203"/>
      </g>
     </g>
    </g>
    <g id="text_10">
     <!-- x -->
     <g transform="translate(201.925663 316.706687) scale(0.1 -0.1)">
      <defs>
       <path id="DejaVuSans-78" d="M 3513 3500 
L 2247 1797 
L 3578 0 
L 2900 0 
L 1881 1375 
L 863 0 
L 184 0 
L 1544 1831 
L 300 3500 
L 978 3500 
L 1906 2253 
L 2834 3500 
L 3513 3500 
z
" transform="scale(0.015625)"/>
      </defs>
      <use xlink:href="#DejaVuSans-78"/>
     </g>
    </g>
   </g>
   <g id="matplotlib.axis_2">
    <g id="ytick_1">
     <g id="line2d_19">
      <path d="M 58.523438 288.430125 
L 351.246638 288.430125 
" clip-path="url(#p8189c7ca8e)" style="fill: none; stroke: #b0b0b0; stroke-width: 0.8; stroke-linecap: square"/>
     </g>
     <g id="line2d_20">
      <defs>
       <path id="mf43b75339f" d="M 0 0 
L -3.5 0 
" style="stroke: #000000; stroke-width: 0.8"/>
      </defs>
      <g>
       <use xlink:href="#mf43b75339f" x="58.523438" y="288.430125" style="stroke: #000000; stroke-width: 0.8"/>
      </g>
     </g>
     <g id="text_11">
      <!-- −1.00 -->
      <g transform="translate(20.878125 292.229344) scale(0.1 -0.1)">
       <defs>
        <path id="DejaVuSans-2212" d="M 678 2272 
L 4684 2272 
L 4684 1741 
L 678 1741 
L 678 2272 
z
" transform="scale(0.015625)"/>
       </defs>
       <use xlink:href="#DejaVuSans-2212"/>
       <use xlink:href="#DejaVuSans-31" x="83.789062"/>
       <use xlink:href="#DejaVuSans-2e" x="147.412109"/>
       <use xlink:href="#DejaVuSans-30" x="179.199219"/>
       <use xlink:href="#DejaVuSans-30" x="242.822266"/>
      </g>
     </g>
    </g>
    <g id="ytick_2">
     <g id="line2d_21">
      <path d="M 58.523438 255.166125 
L 351.246638 255.166125 
" clip-path="url(#p8189c7ca8e)" style="fill: none; stroke: #b0b0b0; stroke-width: 0.8; stroke-linecap: square"/>
     </g>
     <g id="line2d_22">
      <g>
       <use xlink:href="#mf43b75339f" x="58.523438" y="255.166125" style="stroke: #000000; stroke-width: 0.8"/>
      </g>
     </g>
     <g id="text_12">
      <!-- −0.75 -->
      <g transform="translate(20.878125 258.965344) scale(0.1 -0.1)">
       <use xlink:href="#DejaVuSans-2212"/>
       <use xlink:href="#DejaVuSans-30" x="83.789062"/>
       <use xlink:href="#DejaVuSans-2e" x="147.412109"/>
       <use xlink:href="#DejaVuSans-37" x="179.199219"/>
       <use xlink:href="#DejaVuSans-35" x="242.822266"/>
      </g>
     </g>
    </g>
    <g id="ytick_3">
     <g id="line2d_23">
      <path d="M 58.523438 221.902125 
L 351.246638 221.902125 
" clip-path="url(#p8189c7ca8e)" style="fill: none; stroke: #b0b0b0; stroke-width: 0.8; stroke-linecap: square"/>
     </g>
     <g id="line2d_24">
      <g>
       <use xlink:href="#mf43b75339f" x="58.523438" y="221.902125" style="stroke: #000000; stroke-width: 0.8"/>
      </g>
     </g>
     <g id="text_13">
      <!-- −0.50 -->
      <g transform="translate(20.878125 225.701344) scale(0.1 -0.1)">
       <use xlink:href="#DejaVuSans-2212"/>
       <use xlink:href="#DejaVuSans-30" x="83.789062"/>
       <use xlink:href="#DejaVuSans-2e" x="147.412109"/>
       <use xlink:href="#DejaVuSans-35" x="179.199219"/>
       <use xlink:href="#DejaVuSans-30" x="242.822266"/>
      </g>
     </g>
    </g>
    <g id="ytick_4">
     <g id="line2d_25">
      <path d="M 58.523438 188.638125 
L 351.246638 188.638125 
" clip-path="url(#p8189c7ca8e)" style="fill: none; stroke: #b0b0b0; stroke-width: 0.8; stroke-linecap: square"/>
     </g>
     <g id="line2d_26">
      <g>
       <use xlink:href="#mf43b75339f" x="58.523438" y="188.638125" style="stroke: #000000; stroke-width: 0.8"/>
      </g>
     </g>
     <g id="text_14">
      <!-- −0.25 -->
      <g transform="translate(20.878125 192.437344) scale(0.1 -0.1)">
       <use xlink:href="#DejaVuSans-2212"/>
       <use xlink:href="#DejaVuSans-30" x="83.789062"/>
       <use xlink:href="#DejaVuSans-2e" x="147.412109"/>
       <use xlink:href="#DejaVuSans-32" x="179.199219"/>
       <use xlink:href="#DejaVuSans-35" x="242.822266"/>
      </g>
     </g>
    </g>
    <g id="ytick_5">
     <g id="line2d_27">
      <path d="M 58.523438 155.374125 
L 351.246638 155.374125 
" clip-path="url(#p8189c7ca8e)" style="fill: none; stroke: #b0b0b0; stroke-width: 0.8; stroke-linecap: square"/>
     </g>
     <g id="line2d_28">
      <g>
       <use xlink:href="#mf43b75339f" x="58.523438" y="155.374125" style="stroke: #000000; stroke-width: 0.8"/>
      </g>
     </g>
     <g id="text_15">
      <!-- 0.00 -->
      <g transform="translate(29.257813 159.173344) scale(0.1 -0.1)">
       <use xlink:href="#DejaVuSans-30"/>
       <use xlink:href="#DejaVuSans-2e" x="63.623047"/>
       <use xlink:href="#DejaVuSans-30" x="95.410156"/>
       <use xlink:href="#DejaVuSans-30" x="159.033203"/>
      </g>
     </g>
    </g>
    <g id="ytick_6">
     <g id="line2d_29">
      <path d="M 58.523438 122.110125 
L 351.246638 122.110125 
" clip-path="url(#p8189c7ca8e)" style="fill: none; stroke: #b0b0b0; stroke-width: 0.8; stroke-linecap: square"/>
     </g>
     <g id="line2d_30">
      <g>
       <use xlink:href="#mf43b75339f" x="58.523438" y="122.110125" style="stroke: #000000; stroke-width: 0.8"/>
      </g>
     </g>
     <g id="text_16">
      <!-- 0.25 -->
      <g transform="translate(29.257813 125.909344) scale(0.1 -0.1)">
       <use xlink:href="#DejaVuSans-30"/>
       <use xlink:href="#DejaVuSans-2e" x="63.623047"/>
       <use xlink:href="#DejaVuSans-32" x="95.410156"/>
       <use xlink:href="#DejaVuSans-35" x="159.033203"/>
      </g>
     </g>
    </g>
    <g id="ytick_7">
     <g id="line2d_31">
      <path d="M 58.523438 88.846125 
L 351.246638 88.846125 
" clip-path="url(#p8189c7ca8e)" style="fill: none; stroke: #b0b0b0; stroke-width: 0.8; stroke-linecap: square"/>
     </g>
     <g id="line2d_32">
      <g>
       <use xlink:href="#mf43b75339f" x="58.523438" y="88.846125" style="stroke: #000000; stroke-width: 0.8"/>
      </g>
     </g>
     <g id="text_17">
      <!-- 0.50 -->
      <g transform="translate(29.257813 92.645344) scale(0.1 -0.1)">
       <use xlink:href="#DejaVuSans-30"/>
       <use xlink:href="#DejaVuSans-2e" x="63.623047"/>
       <use xlink:href="#DejaVuSans-35" x="95.410156"/>
       <use xlink:href="#DejaVuSans-30" x="159.033203"/>
      </g>
     </g>
    </g>
    <g id="ytick_8">
     <g id="line2d_33">
      <path d="M 58.523438 55.582125 
L 351.246638 55.582125 
" clip-path="url(#p8189c7ca8e)" style="fill: none; stroke: #b0b0b0; stroke-width: 0.8; stroke-linecap: square"/>
     </g>
     <g id="line2d_34">
      <g>
       <use xlink:href="#mf43b75339f" x="58.523438" y="55.582125" style="stroke: #000000; stroke-width: 0.8"/>
      </g>
     </g>
     <g id="text_18">
      <!-- 0.75 -->
      <g transform="translate(29.257813 59.381344) scale(0.1 -0.1)">
       <use xlink:href="#DejaVuSans-30"/>
       <use xlink:href="#DejaVuSans-2e" x="63.623047"/>
       <use xlink:href="#DejaVuSans-37" x="95.410156"/>
       <use xlink:href="#DejaVuSans-35" x="159.033203"/>
      </g>
     </g>
    </g>
    <g id="ytick_9">
     <g id="line2d_35">
      <path d="M 58.523438 22.318125 
L 351.246638 22.318125 
" clip-path="url(#p8189c7ca8e)" style="fill: none; stroke: #b0b0b0; stroke-width: 0.8; stroke-linecap: square"/>
     </g>
     <g id="line2d_36">
      <g>
       <use xlink:href="#mf43b75339f" x="58.523438" y="22.318125" style="stroke: #000000; stroke-width: 0.8"/>
      </g>
     </g>
     <g id="text_19">
      <!-- 1.00 -->
      <g transform="translate(29.257813 26.117344) scale(0.1 -0.1)">
       <use xlink:href="#DejaVuSans-31"/>
       <use xlink:href="#DejaVuSans-2e" x="63.623047"/>
       <use xlink:href="#DejaVuSans-30" x="95.410156"/>
       <use xlink:href="#DejaVuSans-30" x="159.033203"/>
      </g>
     </g>
    </g>
    <g id="text_20">
     <!-- y -->
     <g transform="translate(14.798438 158.3335) rotate(-90) scale(0.1 -0.1)">
      <defs>
       <path id="DejaVuSans-79" d="M 2059 -325 
Q 1816 -950 1584 -1140 
Q 1353 -1331 966 -1331 
L 506 -1331 
L 506 -850 
L 844 -850 
Q 1081 -850 1212 -737 
Q 1344 -625 1503 -206 
L 1606 56 
L 191 3500 
L 800 3500 
L 1894 763 
L 2988 3500 
L 3597 3500 
L 2059 -325 
z
" transform="scale(0.015625)"/>
      </defs>
      <use xlink:href="#DejaVuSans-79"/>
     </g>
    </g>
   </g>
   <g id="line2d_37">
    <path d="M 71.829038 155.374125 
L 79.852515 155.343619 
L 85.2015 156.012438 
L 86.538746 155.930522 
L 87.875992 155.615784 
L 91.887731 153.942601 
L 93.224977 153.690866 
L 94.562223 153.882059 
L 95.89947 154.571847 
L 97.236716 155.669854 
L 98.573962 156.937282 
L 99.911208 158.031914 
L 101.248455 158.59434 
L 102.585701 158.355037 
L 103.922947 157.232241 
L 105.260193 155.388905 
L 106.59744 153.2251 
L 107.934686 151.298532 
L 109.271932 150.186637 
L 110.609178 150.322951 
L 111.946424 151.85237 
L 113.283671 154.549992 
L 115.958163 160.888296 
L 117.295409 162.850031 
L 118.632656 163.054881 
L 119.969902 161.238289 
L 121.307148 157.655369 
L 123.981641 148.595637 
L 125.318887 145.440396 
L 126.656133 144.577707 
L 127.993379 146.465795 
L 129.330625 150.872833 
L 132.005118 163.034359 
L 133.342364 167.748083 
L 134.67961 169.649809 
L 136.016857 167.99944 
L 137.354103 162.930943 
L 141.365842 140.790416 
L 142.703088 137.4227 
L 144.040334 138.441159 
L 145.37758 143.903285 
L 146.714826 152.71235 
L 148.052073 162.822849 
L 149.389319 171.70936 
L 150.726565 176.99306 
L 152.063811 177.071507 
L 153.401058 171.586473 
L 154.738304 161.596766 
L 157.412796 137.97604 
L 158.750043 130.328924 
L 160.087289 128.637001 
L 161.424535 133.679668 
L 162.761781 144.547696 
L 165.436274 172.925958 
L 166.77352 183.354084 
L 168.110766 187.204148 
L 169.448012 183.149476 
L 170.785259 171.8201 
L 173.459751 138.775346 
L 174.796997 125.206065 
L 176.134244 118.651812 
L 177.47149 121.112074 
L 178.808736 132.378981 
L 180.145982 149.988914 
L 181.483228 169.750144 
L 182.820475 186.736694 
L 184.157721 196.513852 
L 185.494967 196.291016 
L 186.832213 185.703282 
L 188.16946 167.005941 
L 190.843952 124.036116 
L 192.181198 110.574074 
L 193.518445 107.907656 
L 194.855691 117.126313 
L 196.192937 136.347055 
L 198.867429 185.277241 
L 200.204676 202.800752 
L 201.541922 208.98684 
L 202.879168 201.875667 
L 204.216414 182.803456 
L 206.890907 128.461615 
L 208.228153 106.611969 
L 209.565399 96.328482 
L 210.902646 100.574031 
L 212.239892 118.737332 
L 213.577138 146.675261 
L 214.914384 177.650813 
L 216.25163 203.956338 
L 217.588877 218.831337 
L 218.926123 218.197648 
L 220.263369 201.767136 
L 221.600615 173.22328 
L 222.937862 139.404277 
L 224.275108 108.666323 
L 225.612354 88.818396 
L 226.9496 85.139076 
L 228.286847 98.978925 
L 229.624093 127.31712 
L 232.298585 198.390509 
L 233.635831 223.454245 
L 234.973078 232.069396 
L 236.310324 221.679174 
L 237.64757 194.439365 
L 240.322063 117.923325 
L 241.659309 87.560673 
L 242.996555 73.497 
L 244.333801 79.612509 
L 245.671048 104.809997 
L 247.008294 143.183557 
L 248.34554 185.399757 
L 249.682786 220.969167 
L 251.020032 240.855061 
L 252.357279 239.769935 
L 253.694525 217.576009 
L 255.031771 179.419956 
L 256.369017 134.543486 
L 257.706264 94.043536 
L 259.04351 68.12521 
L 260.380756 63.528261 
L 261.718002 81.776634 
L 263.055249 118.705248 
L 265.729741 210.373925 
L 267.066987 242.352539 
L 268.404233 253.147271 
L 269.74148 239.729486 
L 271.078726 205.074529 
L 273.753218 108.713024 
L 275.090465 70.840788 
L 276.427711 53.496499 
L 277.764957 61.292883 
L 279.102203 92.629534 
L 280.43945 140.008116 
L 281.776696 191.82724 
L 283.113942 235.22726 
L 284.451188 259.286431 
L 285.788434 257.772858 
L 287.125681 230.757941 
L 288.462927 184.673736 
L 289.800173 130.781373 
L 291.137419 82.415212 
L 292.474666 51.678151 
L 293.811912 46.408422 
L 295.149158 68.179224 
L 296.486404 111.842099 
L 299.160897 219.330421 
L 300.498143 256.497763 
L 301.835389 268.864021 
L 303.172635 253.140371 
L 304.509882 213.00313 
L 307.184374 102.339309 
L 308.52162 59.199968 
L 309.858867 39.631074 
L 311.196113 48.658983 
L 312.533359 84.23109 
L 313.870605 137.679754 
L 315.207852 195.837849 
L 316.545098 244.28874 
L 317.882344 270.946981 
L 319.21959 269.078661 
L 320.556836 239.00511 
L 321.894083 188.058231 
L 323.231329 128.78982 
L 324.568575 75.872959 
L 325.905821 42.461944 
L 327.243068 36.915603 
L 328.580314 60.701889 
L 329.91756 108.010095 
L 332.592053 223.550316 
L 333.929299 263.15922 
L 335.266545 276.14998 
L 336.603791 259.260676 
L 337.941038 216.638027 
L 337.941038 216.638027 
" clip-path="url(#p8189c7ca8e)" style="fill: none; stroke: #ff0000; stroke-width: 2; stroke-linecap: square"/>
   </g>
   <g id="line2d_38">
    <path d="M 71.829038 155.374125 
L 73.166284 154.78819 
L 74.50353 154.657416 
L 75.840776 155.247379 
L 77.178022 156.510572 
L 78.515269 158.073952 
L 79.852515 159.346566 
L 81.189761 159.71676 
L 82.527007 158.777355 
L 83.864254 156.504639 
L 86.538746 150.053234 
L 87.875992 147.662562 
L 89.213239 147.022909 
L 90.550485 148.605263 
L 91.887731 152.289921 
L 94.562223 162.493078 
L 95.89947 166.370383 
L 97.236716 167.75288 
L 98.573962 165.996729 
L 99.911208 161.256957 
L 102.585701 147.394569 
L 103.922947 141.74487 
L 105.260193 139.183504 
L 106.59744 140.62755 
L 107.934686 145.998562 
L 109.271932 154.173344 
L 110.609178 163.212436 
L 111.946424 170.82172 
L 113.283671 174.936902 
L 114.620917 174.281419 
L 115.958163 168.747462 
L 117.295409 159.489332 
L 118.632656 148.689486 
L 119.969902 139.042675 
L 121.307148 133.080483 
L 122.644394 132.506308 
L 123.981641 137.715649 
L 125.318887 147.635296 
L 127.993379 171.584975 
L 129.330625 179.589045 
L 130.667872 181.774297 
L 132.005118 177.369958 
L 133.342364 167.257702 
L 136.016857 140.304146 
L 137.354103 130.173236 
L 138.691349 126.07663 
L 140.028595 129.229178 
L 141.365842 139.043302 
L 145.37758 180.549802 
L 146.714826 186.759389 
L 148.052073 185.246778 
L 149.389319 176.216533 
L 150.726565 161.77369 
L 152.063811 145.432229 
L 153.401058 131.25598 
L 154.738304 122.843019 
L 156.07555 122.408598 
L 157.412796 130.201268 
L 158.750043 144.406243 
L 161.424535 177.438249 
L 162.761781 188.02679 
L 164.099027 190.615706 
L 165.436274 184.456308 
L 166.77352 170.982787 
L 169.448012 136.268282 
L 170.785259 123.650984 
L 172.122505 118.813486 
L 173.459751 123.025423 
L 174.796997 135.304568 
L 177.47149 170.762654 
L 178.808736 185.148306 
L 180.145982 192.206992 
L 181.483228 190.155358 
L 182.820475 179.475825 
L 184.157721 162.802916 
L 185.494967 144.26983 
L 186.832213 128.478186 
L 188.16946 119.349103 
L 189.506706 119.144023 
L 190.843952 127.901198 
L 192.181198 143.42908 
L 193.518445 161.857658 
L 194.855691 178.608365 
L 196.192937 189.538197 
L 197.530183 191.970532 
L 198.867429 185.354658 
L 200.204676 171.390456 
L 202.879168 136.389202 
L 204.216414 124.036166 
L 205.553661 119.535073 
L 206.890907 123.911147 
L 208.228153 135.9769 
L 210.902646 169.759665 
L 212.239892 183.06752 
L 213.577138 189.353306 
L 214.914384 187.184075 
L 216.25163 177.244635 
L 217.588877 162.130798 
L 218.926123 145.669367 
L 220.263369 131.943401 
L 221.600615 124.272398 
L 222.937862 124.403847 
L 224.275108 132.114487 
L 225.612354 145.312532 
L 226.9496 160.603996 
L 228.286847 174.170122 
L 229.624093 182.728058 
L 230.961339 184.331397 
L 232.298585 178.813804 
L 233.635831 167.774261 
L 236.310324 141.303567 
L 237.64757 132.433308 
L 238.984816 129.522956 
L 240.322063 133.027921 
L 241.659309 141.797304 
L 244.333801 164.932666 
L 245.671048 173.49183 
L 247.008294 177.172596 
L 248.34554 175.355763 
L 249.682786 168.822096 
L 252.357279 149.801337 
L 253.694525 142.194046 
L 255.031771 138.365989 
L 256.369017 138.955412 
L 257.706264 143.442458 
L 261.718002 163.825246 
L 263.055249 167.118793 
L 264.392495 167.174887 
L 265.729741 164.389354 
L 269.74148 151.106697 
L 271.078726 149.055794 
L 272.415972 149.035371 
L 273.753218 150.614322 
L 276.427711 155.087993 
L 277.764957 156.337621 
L 279.102203 156.446947 
L 280.43945 155.679203 
L 281.776696 154.675878 
L 283.113942 154.188693 
L 284.451188 154.768393 
L 285.788434 156.518525 
L 288.462927 161.34988 
L 289.800173 162.523435 
L 291.137419 161.692252 
L 292.474666 158.567547 
L 293.811912 153.599911 
L 295.149158 147.952433 
L 296.486404 143.234935 
L 297.823651 141.058227 
L 299.160897 142.529155 
L 300.498143 147.836914 
L 301.835389 156.067463 
L 303.172635 165.326805 
L 304.509882 173.169168 
L 305.847128 177.235426 
L 307.184374 175.936815 
L 308.52162 168.990856 
L 309.858867 157.641821 
L 311.196113 144.473584 
L 312.533359 132.830393 
L 313.870605 125.972862 
L 315.207852 126.180928 
L 316.545098 134.047204 
L 317.882344 148.170458 
L 320.556836 181.36779 
L 321.894083 191.892415 
L 323.231329 193.765543 
L 324.568575 185.851624 
L 325.905821 169.499958 
L 328.580314 127.595041 
L 329.91756 112.596068 
L 331.254806 107.617733 
L 332.592053 114.578033 
L 333.929299 132.417806 
L 336.603791 182.951759 
L 337.941038 203.12144 
L 337.941038 203.12144 
" clip-path="url(#p8189c7ca8e)" style="fill: none; stroke-dasharray: 5.55,2.4; stroke-dashoffset: 0; stroke: #0000ff; stroke-width: 1.5"/>
   </g>
   <g id="patch_3">
    <path d="M 58.523438 288.430125 
L 58.523438 22.318125 
" style="fill: none; stroke: #000000; stroke-width: 0.8; stroke-linejoin: miter; stroke-linecap: square"/>
   </g>
   <g id="patch_4">
    <path d="M 351.246638 288.430125 
L 351.246638 22.318125 
" style="fill: none; stroke: #000000; stroke-width: 0.8; stroke-linejoin: miter; stroke-linecap: square"/>
   </g>
   <g id="patch_5">
    <path d="M 58.523438 288.430125 
L 351.246638 288.430125 
" style="fill: none; stroke: #000000; stroke-width: 0.8; stroke-linejoin: miter; stroke-linecap: square"/>
   </g>
   <g id="patch_6">
    <path d="M 58.523438 22.318125 
L 351.246638 22.318125 
" style="fill: none; stroke: #000000; stroke-width: 0.8; stroke-linejoin: miter; stroke-linecap: square"/>
   </g>
   <g id="text_21">
    <!-- $\mu=115,\ \sigma=15$ -->
    <g transform="translate(71.829038 208.596525) scale(0.1 -0.1)">
     <defs>
      <path id="DejaVuSans-Oblique-3bc" d="M -84 -1331 
L 856 3500 
L 1434 3500 
L 1009 1322 
Q 997 1256 987 1175 
Q 978 1094 978 1013 
Q 978 722 1161 565 
Q 1344 409 1684 409 
Q 2147 409 2431 671 
Q 2716 934 2816 1459 
L 3213 3500 
L 3788 3500 
L 3266 809 
Q 3253 750 3248 706 
Q 3244 663 3244 628 
Q 3244 531 3283 486 
Q 3322 441 3406 441 
Q 3438 441 3492 456 
Q 3547 472 3647 513 
L 3559 50 
Q 3422 -19 3297 -55 
Q 3172 -91 3053 -91 
Q 2847 -91 2730 40 
Q 2613 172 2613 403 
Q 2438 153 2195 31 
Q 1953 -91 1625 -91 
Q 1334 -91 1117 43 
Q 900 178 831 397 
L 494 -1331 
L -84 -1331 
z
" transform="scale(0.015625)"/>
      <path id="DejaVuSans-3d" d="M 678 2906 
L 4684 2906 
L 4684 2381 
L 678 2381 
L 678 2906 
z
M 678 1631 
L 4684 1631 
L 4684 1100 
L 678 1100 
L 678 1631 
z
" transform="scale(0.015625)"/>
      <path id="DejaVuSans-2c" d="M 750 794 
L 1409 794 
L 1409 256 
L 897 -744 
L 494 -744 
L 750 256 
L 750 794 
z
" transform="scale(0.015625)"/>
      <path id="DejaVuSans-Oblique-3c3" d="M 2219 3044 
Q 1744 3044 1422 2700 
Q 1081 2341 969 1747 
Q 844 1119 1044 756 
Q 1241 397 1706 397 
Q 2166 397 2503 759 
Q 2844 1122 2966 1747 
Q 3075 2319 2881 2700 
Q 2700 3044 2219 3044 
z
M 2309 3503 
L 4219 3500 
L 4106 2925 
L 3463 2925 
Q 3706 2438 3575 1747 
Q 3406 888 2884 400 
Q 2359 -91 1609 -91 
Q 856 -91 525 400 
Q 194 888 363 1747 
Q 528 2609 1050 3097 
Q 1484 3503 2309 3503 
z
" transform="scale(0.015625)"/>
     </defs>
     <use xlink:href="#DejaVuSans-Oblique-3bc" transform="translate(0 0.09375)"/>
     <use xlink:href="#DejaVuSans-3d" transform="translate(83.105469 0.09375)"/>
     <use xlink:href="#DejaVuSans-31" transform="translate(186.376953 0.09375)"/>
     <use xlink:href="#DejaVuSans-31" transform="translate(250 0.09375)"/>
     <use xlink:href="#DejaVuSans-35" transform="translate(313.623047 0.09375)"/>
     <use xlink:href="#DejaVuSans-2c" transform="translate(377.246094 0.09375)"/>
     <use xlink:href="#DejaVuSans-Oblique-3c3" transform="translate(460.986003 0.09375)"/>
     <use xlink:href="#DejaVuSans-3d" transform="translate(543.847332 0.09375)"/>
     <use xlink:href="#DejaVuSans-31" transform="translate(647.118816 0.09375)"/>
     <use xlink:href="#DejaVuSans-35" transform="translate(710.741863 0.09375)"/>
    </g>
   </g>
   <g id="text_22">
    <!-- Plot of f(x) and g(x) -->
    <g transform="translate(146.490038 16.318125) scale(0.12 -0.12)">
     <defs>
      <path id="DejaVuSans-50" d="M 1259 4147 
L 1259 2394 
L 2053 2394 
Q 2494 2394 2734 2622 
Q 2975 2850 2975 3272 
Q 2975 3691 2734 3919 
Q 2494 4147 2053 4147 
L 1259 4147 
z
M 628 4666 
L 2053 4666 
Q 2838 4666 3239 4311 
Q 3641 3956 3641 3272 
Q 3641 2581 3239 2228 
Q 2838 1875 2053 1875 
L 1259 1875 
L 1259 0 
L 628 0 
L 628 4666 
z
" transform="scale(0.015625)"/>
      <path id="DejaVuSans-6c" d="M 603 4863 
L 1178 4863 
L 1178 0 
L 603 0 
L 603 4863 
z
" transform="scale(0.015625)"/>
      <path id="DejaVuSans-6f" d="M 1959 3097 
Q 1497 3097 1228 2736 
Q 959 2375 959 1747 
Q 959 1119 1226 758 
Q 1494 397 1959 397 
Q 2419 397 2687 759 
Q 2956 1122 2956 1747 
Q 2956 2369 2687 2733 
Q 2419 3097 1959 3097 
z
M 1959 3584 
Q 2709 3584 3137 3096 
Q 3566 2609 3566 1747 
Q 3566 888 3137 398 
Q 2709 -91 1959 -91 
Q 1206 -91 779 398 
Q 353 888 353 1747 
Q 353 2609 779 3096 
Q 1206 3584 1959 3584 
z
" transform="scale(0.015625)"/>
      <path id="DejaVuSans-74" d="M 1172 4494 
L 1172 3500 
L 2356 3500 
L 2356 3053 
L 1172 3053 
L 1172 1153 
Q 1172 725 1289 603 
Q 1406 481 1766 481 
L 2356 481 
L 2356 0 
L 1766 0 
Q 1100 0 847 248 
Q 594 497 594 1153 
L 594 3053 
L 172 3053 
L 172 3500 
L 594 3500 
L 594 4494 
L 1172 4494 
z
" transform="scale(0.015625)"/>
      <path id="DejaVuSans-20" transform="scale(0.015625)"/>
      <path id="DejaVuSans-66" d="M 2375 4863 
L 2375 4384 
L 1825 4384 
Q 1516 4384 1395 4259 
Q 1275 4134 1275 3809 
L 1275 3500 
L 2222 3500 
L 2222 3053 
L 1275 3053 
L 1275 0 
L 697 0 
L 697 3053 
L 147 3053 
L 147 3500 
L 697 3500 
L 697 3744 
Q 697 4328 969 4595 
Q 1241 4863 1831 4863 
L 2375 4863 
z
" transform="scale(0.015625)"/>
      <path id="DejaVuSans-28" d="M 1984 4856 
Q 1566 4138 1362 3434 
Q 1159 2731 1159 2009 
Q 1159 1288 1364 580 
Q 1569 -128 1984 -844 
L 1484 -844 
Q 1016 -109 783 600 
Q 550 1309 550 2009 
Q 550 2706 781 3412 
Q 1013 4119 1484 4856 
L 1984 4856 
z
" transform="scale(0.015625)"/>
      <path id="DejaVuSans-29" d="M 513 4856 
L 1013 4856 
Q 1481 4119 1714 3412 
Q 1947 2706 1947 2009 
Q 1947 1309 1714 600 
Q 1481 -109 1013 -844 
L 513 -844 
Q 928 -128 1133 580 
Q 1338 1288 1338 2009 
Q 1338 2731 1133 3434 
Q 928 4138 513 4856 
z
" transform="scale(0.015625)"/>
      <path id="DejaVuSans-61" d="M 2194 1759 
Q 1497 1759 1228 1600 
Q 959 1441 959 1056 
Q 959 750 1161 570 
Q 1363 391 1709 391 
Q 2188 391 2477 730 
Q 2766 1069 2766 1631 
L 2766 1759 
L 2194 1759 
z
M 3341 1997 
L 3341 0 
L 2766 0 
L 2766 531 
Q 2569 213 2275 61 
Q 1981 -91 1556 -91 
Q 1019 -91 701 211 
Q 384 513 384 1019 
Q 384 1609 779 1909 
Q 1175 2209 1959 2209 
L 2766 2209 
L 2766 2266 
Q 2766 2663 2505 2880 
Q 2244 3097 1772 3097 
Q 1472 3097 1187 3025 
Q 903 2953 641 2809 
L 641 3341 
Q 956 3463 1253 3523 
Q 1550 3584 1831 3584 
Q 2591 3584 2966 3190 
Q 3341 2797 3341 1997 
z
" transform="scale(0.015625)"/>
      <path id="DejaVuSans-6e" d="M 3513 2113 
L 3513 0 
L 2938 0 
L 2938 2094 
Q 2938 2591 2744 2837 
Q 2550 3084 2163 3084 
Q 1697 3084 1428 2787 
Q 1159 2491 1159 1978 
L 1159 0 
L 581 0 
L 581 3500 
L 1159 3500 
L 1159 2956 
Q 1366 3272 1645 3428 
Q 1925 3584 2291 3584 
Q 2894 3584 3203 3211 
Q 3513 2838 3513 2113 
z
" transform="scale(0.015625)"/>
      <path id="DejaVuSans-64" d="M 2906 2969 
L 2906 4863 
L 3481 4863 
L 3481 0 
L 2906 0 
L 2906 525 
Q 2725 213 2448 61 
Q 2172 -91 1784 -91 
Q 1150 -91 751 415 
Q 353 922 353 1747 
Q 353 2572 751 3078 
Q 1150 3584 1784 3584 
Q 2172 3584 2448 3432 
Q 2725 3281 2906 2969 
z
M 947 1747 
Q 947 1113 1208 752 
Q 1469 391 1925 391 
Q 2381 391 2643 752 
Q 2906 1113 2906 1747 
Q 2906 2381 2643 2742 
Q 2381 3103 1925 3103 
Q 1469 3103 1208 2742 
Q 947 2381 947 1747 
z
" transform="scale(0.015625)"/>
      <path id="DejaVuSans-67" d="M 2906 1791 
Q 2906 2416 2648 2759 
Q 2391 3103 1925 3103 
Q 1463 3103 1205 2759 
Q 947 2416 947 1791 
Q 947 1169 1205 825 
Q 1463 481 1925 481 
Q 2391 481 2648 825 
Q 2906 1169 2906 1791 
z
M 3481 434 
Q 3481 -459 3084 -895 
Q 2688 -1331 1869 -1331 
Q 1566 -1331 1297 -1286 
Q 1028 -1241 775 -1147 
L 775 -588 
Q 1028 -725 1275 -790 
Q 1522 -856 1778 -856 
Q 2344 -856 2625 -561 
Q 2906 -266 2906 331 
L 2906 616 
Q 2728 306 2450 153 
Q 2172 0 1784 0 
Q 1141 0 747 490 
Q 353 981 353 1791 
Q 353 2603 747 3093 
Q 1141 3584 1784 3584 
Q 2172 3584 2450 3431 
Q 2728 3278 2906 2969 
L 2906 3500 
L 3481 3500 
L 3481 434 
z
" transform="scale(0.015625)"/>
     </defs>
     <use xlink:href="#DejaVuSans-50"/>
     <use xlink:href="#DejaVuSans-6c" x="60.302734"/>
     <use xlink:href="#DejaVuSans-6f" x="88.085938"/>
     <use xlink:href="#DejaVuSans-74" x="149.267578"/>
     <use xlink:href="#DejaVuSans-20" x="188.476562"/>
     <use xlink:href="#DejaVuSans-6f" x="220.263672"/>
     <use xlink:href="#DejaVuSans-66" x="281.445312"/>
     <use xlink:href="#DejaVuSans-20" x="316.650391"/>
     <use xlink:href="#DejaVuSans-66" x="348.4375"/>
     <use xlink:href="#DejaVuSans-28" x="383.642578"/>
     <use xlink:href="#DejaVuSans-78" x="422.65625"/>
     <use xlink:href="#DejaVuSans-29" x="481.835938"/>
     <use xlink:href="#DejaVuSans-20" x="520.849609"/>
     <use xlink:href="#DejaVuSans-61" x="552.636719"/>
     <use xlink:href="#DejaVuSans-6e" x="613.916016"/>
     <use xlink:href="#DejaVuSans-64" x="677.294922"/>
     <use xlink:href="#DejaVuSans-20" x="740.771484"/>
     <use xlink:href="#DejaVuSans-67" x="772.558594"/>
     <use xlink:href="#DejaVuSans-28" x="836.035156"/>
     <use xlink:href="#DejaVuSans-78" x="875.048828"/>
     <use xlink:href="#DejaVuSans-29" x="934.228516"/>
    </g>
   </g>
   <g id="legend_1">
    <g id="patch_7">
     <path d="M 65.523438 59.674375 
L 117.59375 59.674375 
Q 119.59375 59.674375 119.59375 57.674375 
L 119.59375 29.318125 
Q 119.59375 27.318125 117.59375 27.318125 
L 65.523438 27.318125 
Q 63.523438 27.318125 63.523438 29.318125 
L 63.523438 57.674375 
Q 63.523438 59.674375 65.523438 59.674375 
z
" style="fill: #ffffff; opacity: 0.8; stroke: #cccccc; stroke-linejoin: miter"/>
    </g>
    <g id="line2d_39">
     <path d="M 67.523438 35.416562 
L 77.523438 35.416562 
L 87.523438 35.416562 
" style="fill: none; stroke: #ff0000; stroke-width: 2; stroke-linecap: square"/>
    </g>
    <g id="text_23">
     <!-- f(x) -->
     <g transform="translate(95.523438 38.916562) scale(0.1 -0.1)">
      <use xlink:href="#DejaVuSans-66"/>
      <use xlink:href="#DejaVuSans-28" x="35.205078"/>
      <use xlink:href="#DejaVuSans-78" x="74.21875"/>
      <use xlink:href="#DejaVuSans-29" x="133.398438"/>
     </g>
    </g>
    <g id="line2d_40">
     <path d="M 67.523438 50.094687 
L 77.523438 50.094687 
L 87.523438 50.094687 
" style="fill: none; stroke-dasharray: 5.55,2.4; stroke-dashoffset: 0; stroke: #0000ff; stroke-width: 1.5"/>
    </g>
    <g id="text_24">
     <!-- g(x) -->
     <g transform="translate(95.523438 53.594687) scale(0.1 -0.1)">
      <use xlink:href="#DejaVuSans-67"/>
      <use xlink:href="#DejaVuSans-28" x="63.476562"/>
      <use xlink:href="#DejaVuSans-78" x="102.490234"/>
      <use xlink:href="#DejaVuSans-29" x="161.669922"/>
     </g>
    </g>
   </g>
  </g>
 </g>
 <defs>
  <clipPath id="p8189c7ca8e">
   <rect x="58.523438" y="22.318125" width="292.7232" height="266.112"/>
  </clipPath>
 </defs>
</svg>