<?xml version="1.0" encoding="utf-8" standalone="no"?>
<!DOCTYPE svg PUBLIC "-//W3C//DTD SVG 1.1//EN"
  "http://www.w3.org/Graphics/SVG/1.1/DTD/svg11.dtd">
<svg xmlns:xlink="http://www.w3.org/1999/xlink" width="422.843437pt" height="325.986375pt" viewBox="0 0 422.843437 325.986375" xmlns="http://www.w3.org/2000/svg" version="1.1">
 <metadata>
  <rdf:RDF xmlns:dc="http://purl.org/dc/elements/1.1/" xmlns:cc="http://creativecommons.org/ns#" xmlns:rdf="http://www.w3.org/1999/02/22-rdf-syntax-ns#">
   <cc:Work>
    <dc:type rdf:resource="http://purl.org/dc/dcmitype/StillImage"/>
    <dc:date>2024-12-13T09:21:03.844890</dc:date>
    <dc:format>image/svg+xml</dc:format>
    <dc:creator>
     <cc:Agent>
      <dc:title>Matplotlib v3.9.2, https://matplotlib.org/</dc:title>
     </cc:Agent>
    </dc:creator>
   </cc:Work>
  </rdf:RDF>
 </metadata>
 <defs>
  <style type="text/css">*{stroke-linejoin: round; stroke-linecap: butt}</style>
 </defs>
 <g id="figure_1">
  <g id="patch_1">
   <path d="M 0 325.986375 
L 422.843437 325.986375 
L 422.843437 0 
L 0 0 
z
" style="fill: #ffffff"/>
  </g>
  <g id="axes_1">
   <g id="patch_2">
    <path d="M 58.523438 288.430125 
L 415.643438 288.430125 
L 415.643438 22.318125 
L 58.523438 22.318125 
z
" style="fill: #ffffff"/>
   </g>
   <g id="matplotlib.axis_1">
    <g id="xtick_1">
     <g id="line2d_1">
      <path d="M 74.756165 288.430125 
L 74.756165 22.318125 
" clip-path="url(#pb9e816adb5)" style="fill: none; stroke: #b0b0b0; stroke-width: 0.8; stroke-linecap: square"/>
     </g>
     <g id="line2d_2">
      <defs>
       <path id="mc5ac69dd3f" d="M 0 0 
L 0 3.5 
" style="stroke: #000000; stroke-width: 0.8"/>
      </defs>
      <g>
       <use xlink:href="#mc5ac69dd3f" x="74.756165" y="288.430125" style="stroke: #000000; stroke-width: 0.8"/>
      </g>
     </g>
     <g id="text_1">
      <!-- 0.0 -->
      <g transform="translate(66.804602 303.028562) scale(0.1 -0.1)">
       <defs>
        <path id="DejaVuSans-30" d="M 2034 4250 
Q 1547 4250 1301 3770 
Q 1056 3291 1056 2328 
Q 1056 1369 1301 889 
Q 1547 409 2034 409 
Q 2525 409 2770 889 
Q 3016 1369 3016 2328 
Q 3016 3291 2770 3770 
Q 2525 4250 2034 4250 
z
M 2034 4750 
Q 2819 4750 3233 4129 
Q 3647 3509 3647 2328 
Q 3647 1150 3233 529 
Q 2819 -91 2034 -91 
Q 1250 -91 836 529 
Q 422 1150 422 2328 
Q 422 3509 836 4129 
Q 1250 4750 2034 4750 
z
" transform="scale(0.015625)"/>
        <path id="DejaVuSans-2e" d="M 684 794 
L 1344 794 
L 1344 0 
L 684 0 
L 684 794 
z
" transform="scale(0.015625)"/>
       </defs>
       <use xlink:href="#DejaVuSans-30"/>
       <use xlink:href="#DejaVuSans-2e" x="63.623047"/>
       <use xlink:href="#DejaVuSans-30" x="95.410156"/>
      </g>
     </g>
    </g>
    <g id="xtick_2">
     <g id="line2d_3">
      <path d="M 139.687074 288.430125 
L 139.687074 22.318125 
" clip-path="url(#pb9e816adb5)" style="fill: none; stroke: #b0b0b0; stroke-width: 0.8; stroke-linecap: square"/>
     </g>
     <g id="line2d_4">
      <g>
       <use xlink:href="#mc5ac69dd3f" x="139.687074" y="288.430125" style="stroke: #000000; stroke-width: 0.8"/>
      </g>
     </g>
     <g id="text_2">
      <!-- 0.2 -->
      <g transform="translate(131.735511 303.028562) scale(0.1 -0.1)">
       <defs>
        <path id="DejaVuSans-32" d="M 1228 531 
L 3431 531 
L 3431 0 
L 469 0 
L 469 531 
Q 828 903 1448 1529 
Q 2069 2156 2228 2338 
Q 2531 2678 2651 2914 
Q 2772 3150 2772 3378 
Q 2772 3750 2511 3984 
Q 2250 4219 1831 4219 
Q 1534 4219 1204 4116 
Q 875 4013 500 3803 
L 500 4441 
Q 881 4594 1212 4672 
Q 1544 4750 1819 4750 
Q 2544 4750 2975 4387 
Q 3406 4025 3406 3419 
Q 3406 3131 3298 2873 
Q 3191 2616 2906 2266 
Q 2828 2175 2409 1742 
Q 1991 1309 1228 531 
z
" transform="scale(0.015625)"/>
       </defs>
       <use xlink:href="#DejaVuSans-30"/>
       <use xlink:href="#DejaVuSans-2e" x="63.623047"/>
       <use xlink:href="#DejaVuSans-32" x="95.410156"/>
      </g>
     </g>
    </g>
    <g id="xtick_3">
     <g id="line2d_5">
      <path d="M 204.617983 288.430125 
L 204.617983 22.318125 
" clip-path="url(#pb9e816adb5)" style="fill: none; stroke: #b0b0b0; stroke-width: 0.8; stroke-linecap: square"/>
     </g>
     <g id="line2d_6">
      <g>
       <use xlink:href="#mc5ac69dd3f" x="204.617983" y="288.430125" style="stroke: #000000; stroke-width: 0.8"/>
      </g>
     </g>
     <g id="text_3">
      <!-- 0.4 -->
      <g transform="translate(196.66642 303.028562) scale(0.1 -0.1)">
       <defs>
        <path id="DejaVuSans-34" d="M 2419 4116 
L 825 1625 
L 2419 1625 
L 2419 4116 
z
M 2253 4666 
L 3047 4666 
L 3047 1625 
L 3713 1625 
L 3713 1100 
L 3047 1100 
L 3047 0 
L 2419 0 
L 2419 1100 
L 313 1100 
L 313 1709 
L 2253 4666 
z
" transform="scale(0.015625)"/>
       </defs>
       <use xlink:href="#DejaVuSans-30"/>
       <use xlink:href="#DejaVuSans-2e" x="63.623047"/>
       <use xlink:href="#DejaVuSans-34" x="95.410156"/>
      </g>
     </g>
    </g>
    <g id="xtick_4">
     <g id="line2d_7">
      <path d="M 269.548892 288.430125 
L 269.548892 22.318125 
" clip-path="url(#pb9e816adb5)" style="fill: none; stroke: #b0b0b0; stroke-width: 0.8; stroke-linecap: square"/>
     </g>
     <g id="line2d_8">
      <g>
       <use xlink:href="#mc5ac69dd3f" x="269.548892" y="288.430125" style="stroke: #000000; stroke-width: 0.8"/>
      </g>
     </g>
     <g id="text_4">
      <!-- 0.6 -->
      <g transform="translate(261.59733 303.028562) scale(0.1 -0.1)">
       <defs>
        <path id="DejaVuSans-36" d="M 2113 2584 
Q 1688 2584 1439 2293 
Q 1191 2003 1191 1497 
Q 1191 994 1439 701 
Q 1688 409 2113 409 
Q 2538 409 2786 701 
Q 3034 994 3034 1497 
Q 3034 2003 2786 2293 
Q 2538 2584 2113 2584 
z
M 3366 4563 
L 3366 3988 
Q 3128 4100 2886 4159 
Q 2644 4219 2406 4219 
Q 1781 4219 1451 3797 
Q 1122 3375 1075 2522 
Q 1259 2794 1537 2939 
Q 1816 3084 2150 3084 
Q 2853 3084 3261 2657 
Q 3669 2231 3669 1497 
Q 3669 778 3244 343 
Q 2819 -91 2113 -91 
Q 1303 -91 875 529 
Q 447 1150 447 2328 
Q 447 3434 972 4092 
Q 1497 4750 2381 4750 
Q 2619 4750 2861 4703 
Q 3103 4656 3366 4563 
z
" transform="scale(0.015625)"/>
       </defs>
       <use xlink:href="#DejaVuSans-30"/>
       <use xlink:href="#DejaVuSans-2e" x="63.623047"/>
       <use xlink:href="#DejaVuSans-36" x="95.410156"/>
      </g>
     </g>
    </g>
    <g id="xtick_5">
     <g id="line2d_9">
      <path d="M 334.479801 288.430125 
L 334.479801 22.318125 
" clip-path="url(#pb9e816adb5)" style="fill: none; stroke: #b0b0b0; stroke-width: 0.8; stroke-linecap: square"/>
     </g>
     <g id="line2d_10">
      <g>
       <use xlink:href="#mc5ac69dd3f" x="334.479801" y="288.430125" style="stroke: #000000; stroke-width: 0.8"/>
      </g>
     </g>
     <g id="text_5">
      <!-- 0.8 -->
      <g transform="translate(326.528239 303.028562) scale(0.1 -0.1)">
       <defs>
        <path id="DejaVuSans-38" d="M 2034 2216 
Q 1584 2216 1326 1975 
Q 1069 1734 1069 1313 
Q 1069 891 1326 650 
Q 1584 409 2034 409 
Q 2484 409 2743 651 
Q 3003 894 3003 1313 
Q 3003 1734 2745 1975 
Q 2488 2216 2034 2216 
z
M 1403 2484 
Q 997 2584 770 2862 
Q 544 3141 544 3541 
Q 544 4100 942 4425 
Q 1341 4750 2034 4750 
Q 2731 4750 3128 4425 
Q 3525 4100 3525 3541 
Q 3525 3141 3298 2862 
Q 3072 2584 2669 2484 
Q 3125 2378 3379 2068 
Q 3634 1759 3634 1313 
Q 3634 634 3220 271 
Q 2806 -91 2034 -91 
Q 1263 -91 848 271 
Q 434 634 434 1313 
Q 434 1759 690 2068 
Q 947 2378 1403 2484 
z
M 1172 3481 
Q 1172 3119 1398 2916 
Q 1625 2713 2034 2713 
Q 2441 2713 2670 2916 
Q 2900 3119 2900 3481 
Q 2900 3844 2670 4047 
Q 2441 4250 2034 4250 
Q 1625 4250 1398 4047 
Q 1172 3844 1172 3481 
z
" transform="scale(0.015625)"/>
       </defs>
       <use xlink:href="#DejaVuSans-30"/>
       <use xlink:href="#DejaVuSans-2e" x="63.623047"/>
       <use xlink:href="#DejaVuSans-38" x="95.410156"/>
      </g>
     </g>
    </g>
    <g id="xtick_6">
     <g id="line2d_11">
      <path d="M 399.41071 288.430125 
L 399.41071 22.318125 
" clip-path="url(#pb9e816adb5)" style="fill: none; stroke: #b0b0b0; stroke-width: 0.8; stroke-linecap: square"/>
     </g>
     <g id="line2d_12">
      <g>
       <use xlink:href="#mc5ac69dd3f" x="399.41071" y="288.430125" style="stroke: #000000; stroke-width: 0.8"/>
      </g>
     </g>
     <g id="text_6">
      <!-- 1.0 -->
      <g transform="translate(391.459148 303.028562) scale(0.1 -0.1)">
       <defs>
        <path id="DejaVuSans-31" d="M 794 531 
L 1825 531 
L 1825 4091 
L 703 3866 
L 703 4441 
L 1819 4666 
L 2450 4666 
L 2450 531 
L 3481 531 
L 3481 0 
L 794 0 
L 794 531 
z
" transform="scale(0.015625)"/>
       </defs>
       <use xlink:href="#DejaVuSans-31"/>
       <use xlink:href="#DejaVuSans-2e" x="63.623047"/>
       <use xlink:href="#DejaVuSans-30" x="95.410156"/>
      </g>
     </g>
    </g>
    <g id="text_7">
     <!-- x -->
     <g transform="translate(234.124063 316.706687) scale(0.1 -0.1)">
      <defs>
       <path id="DejaVuSans-78" d="M 3513 3500 
L 2247 1797 
L 3578 0 
L 2900 0 
L 1881 1375 
L 863 0 
L 184 0 
L 1544 1831 
L 300 3500 
L 978 3500 
L 1906 2253 
L 2834 3500 
L 3513 3500 
z
" transform="scale(0.015625)"/>
      </defs>
      <use xlink:href="#DejaVuSans-78"/>
     </g>
    </g>
   </g>
   <g id="matplotlib.axis_2">
    <g id="ytick_1">
     <g id="line2d_13">
      <path d="M 58.523438 277.524845 
L 415.643438 277.524845 
" clip-path="url(#pb9e816adb5)" style="fill: none; stroke: #b0b0b0; stroke-width: 0.8; stroke-linecap: square"/>
     </g>
     <g id="line2d_14">
      <defs>
       <path id="m0a3b1d3365" d="M 0 0 
L -3.5 0 
" style="stroke: #000000; stroke-width: 0.8"/>
      </defs>
      <g>
       <use xlink:href="#m0a3b1d3365" x="58.523438" y="277.524845" style="stroke: #000000; stroke-width: 0.8"/>
      </g>
     </g>
     <g id="text_8">
      <!-- −1.00 -->
      <g transform="translate(20.878125 281.324063) scale(0.1 -0.1)">
       <defs>
        <path id="DejaVuSans-2212" d="M 678 2272 
L 4684 2272 
L 4684 1741 
L 678 1741 
L 678 2272 
z
" transform="scale(0.015625)"/>
       </defs>
       <use xlink:href="#DejaVuSans-2212"/>
       <use xlink:href="#DejaVuSans-31" x="83.789062"/>
       <use xlink:href="#DejaVuSans-2e" x="147.412109"/>
       <use xlink:href="#DejaVuSans-30" x="179.199219"/>
       <use xlink:href="#DejaVuSans-30" x="242.822266"/>
      </g>
     </g>
    </g>
    <g id="ytick_2">
     <g id="line2d_15">
      <path d="M 58.523438 247.136005 
L 415.643438 247.136005 
" clip-path="url(#pb9e816adb5)" style="fill: none; stroke: #b0b0b0; stroke-width: 0.8; stroke-linecap: square"/>
     </g>
     <g id="line2d_16">
      <g>
       <use xlink:href="#m0a3b1d3365" x="58.523438" y="247.136005" style="stroke: #000000; stroke-width: 0.8"/>
      </g>
     </g>
     <g id="text_9">
      <!-- −0.75 -->
      <g transform="translate(20.878125 250.935223) scale(0.1 -0.1)">
       <defs>
        <path id="DejaVuSans-37" d="M 525 4666 
L 3525 4666 
L 3525 4397 
L 1831 0 
L 1172 0 
L 2766 4134 
L 525 4134 
L 525 4666 
z
" transform="scale(0.015625)"/>
        <path id="DejaVuSans-35" d="M 691 4666 
L 3169 4666 
L 3169 4134 
L 1269 4134 
L 1269 2991 
Q 1406 3038 1543 3061 
Q 1681 3084 1819 3084 
Q 2600 3084 3056 2656 
Q 3513 2228 3513 1497 
Q 3513 744 3044 326 
Q 2575 -91 1722 -91 
Q 1428 -91 1123 -41 
Q 819 9 494 109 
L 494 744 
Q 775 591 1075 516 
Q 1375 441 1709 441 
Q 2250 441 2565 725 
Q 2881 1009 2881 1497 
Q 2881 1984 2565 2268 
Q 2250 2553 1709 2553 
Q 1456 2553 1204 2497 
Q 953 2441 691 2322 
L 691 4666 
z
" transform="scale(0.015625)"/>
       </defs>
       <use xlink:href="#DejaVuSans-2212"/>
       <use xlink:href="#DejaVuSans-30" x="83.789062"/>
       <use xlink:href="#DejaVuSans-2e" x="147.412109"/>
       <use xlink:href="#DejaVuSans-37" x="179.199219"/>
       <use xlink:href="#DejaVuSans-35" x="242.822266"/>
      </g>
     </g>
    </g>
    <g id="ytick_3">
     <g id="line2d_17">
      <path d="M 58.523438 216.747165 
L 415.643438 216.747165 
" clip-path="url(#pb9e816adb5)" style="fill: none; stroke: #b0b0b0; stroke-width: 0.8; stroke-linecap: square"/>
     </g>
     <g id="line2d_18">
      <g>
       <use xlink:href="#m0a3b1d3365" x="58.523438" y="216.747165" style="stroke: #000000; stroke-width: 0.8"/>
      </g>
     </g>
     <g id="text_10">
      <!-- −0.50 -->
      <g transform="translate(20.878125 220.546383) scale(0.1 -0.1)">
       <use xlink:href="#DejaVuSans-2212"/>
       <use xlink:href="#DejaVuSans-30" x="83.789062"/>
       <use xlink:href="#DejaVuSans-2e" x="147.412109"/>
       <use xlink:href="#DejaVuSans-35" x="179.199219"/>
       <use xlink:href="#DejaVuSans-30" x="242.822266"/>
      </g>
     </g>
    </g>
    <g id="ytick_4">
     <g id="line2d_19">
      <path d="M 58.523438 186.358325 
L 415.643438 186.358325 
" clip-path="url(#pb9e816adb5)" style="fill: none; stroke: #b0b0b0; stroke-width: 0.8; stroke-linecap: square"/>
     </g>
     <g id="line2d_20">
      <g>
       <use xlink:href="#m0a3b1d3365" x="58.523438" y="186.358325" style="stroke: #000000; stroke-width: 0.8"/>
      </g>
     </g>
     <g id="text_11">
      <!-- −0.25 -->
      <g transform="translate(20.878125 190.157544) scale(0.1 -0.1)">
       <use xlink:href="#DejaVuSans-2212"/>
       <use xlink:href="#DejaVuSans-30" x="83.789062"/>
       <use xlink:href="#DejaVuSans-2e" x="147.412109"/>
       <use xlink:href="#DejaVuSans-32" x="179.199219"/>
       <use xlink:href="#DejaVuSans-35" x="242.822266"/>
      </g>
     </g>
    </g>
    <g id="ytick_5">
     <g id="line2d_21">
      <path d="M 58.523438 155.969485 
L 415.643438 155.969485 
" clip-path="url(#pb9e816adb5)" style="fill: none; stroke: #b0b0b0; stroke-width: 0.8; stroke-linecap: square"/>
     </g>
     <g id="line2d_22">
      <g>
       <use xlink:href="#m0a3b1d3365" x="58.523438" y="155.969485" style="stroke: #000000; stroke-width: 0.8"/>
      </g>
     </g>
     <g id="text_12">
      <!-- 0.00 -->
      <g transform="translate(29.257813 159.768704) scale(0.1 -0.1)">
       <use xlink:href="#DejaVuSans-30"/>
       <use xlink:href="#DejaVuSans-2e" x="63.623047"/>
       <use xlink:href="#DejaVuSans-30" x="95.410156"/>
       <use xlink:href="#DejaVuSans-30" x="159.033203"/>
      </g>
     </g>
    </g>
    <g id="ytick_6">
     <g id="line2d_23">
      <path d="M 58.523438 125.580645 
L 415.643438 125.580645 
" clip-path="url(#pb9e816adb5)" style="fill: none; stroke: #b0b0b0; stroke-width: 0.8; stroke-linecap: square"/>
     </g>
     <g id="line2d_24">
      <g>
       <use xlink:href="#m0a3b1d3365" x="58.523438" y="125.580645" style="stroke: #000000; stroke-width: 0.8"/>
      </g>
     </g>
     <g id="text_13">
      <!-- 0.25 -->
      <g transform="translate(29.257813 129.379864) scale(0.1 -0.1)">
       <use xlink:href="#DejaVuSans-30"/>
       <use xlink:href="#DejaVuSans-2e" x="63.623047"/>
       <use xlink:href="#DejaVuSans-32" x="95.410156"/>
       <use xlink:href="#DejaVuSans-35" x="159.033203"/>
      </g>
     </g>
    </g>
    <g id="ytick_7">
     <g id="line2d_25">
      <path d="M 58.523438 95.191805 
L 415.643438 95.191805 
" clip-path="url(#pb9e816adb5)" style="fill: none; stroke: #b0b0b0; stroke-width: 0.8; stroke-linecap: square"/>
     </g>
     <g id="line2d_26">
      <g>
       <use xlink:href="#m0a3b1d3365" x="58.523438" y="95.191805" style="stroke: #000000; stroke-width: 0.8"/>
      </g>
     </g>
     <g id="text_14">
      <!-- 0.50 -->
      <g transform="translate(29.257813 98.991024) scale(0.1 -0.1)">
       <use xlink:href="#DejaVuSans-30"/>
       <use xlink:href="#DejaVuSans-2e" x="63.623047"/>
       <use xlink:href="#DejaVuSans-35" x="95.410156"/>
       <use xlink:href="#DejaVuSans-30" x="159.033203"/>
      </g>
     </g>
    </g>
    <g id="ytick_8">
     <g id="line2d_27">
      <path d="M 58.523438 64.802965 
L 415.643438 64.802965 
" clip-path="url(#pb9e816adb5)" style="fill: none; stroke: #b0b0b0; stroke-width: 0.8; stroke-linecap: square"/>
     </g>
     <g id="line2d_28">
      <g>
       <use xlink:href="#m0a3b1d3365" x="58.523438" y="64.802965" style="stroke: #000000; stroke-width: 0.8"/>
      </g>
     </g>
     <g id="text_15">
      <!-- 0.75 -->
      <g transform="translate(29.257813 68.602184) scale(0.1 -0.1)">
       <use xlink:href="#DejaVuSans-30"/>
       <use xlink:href="#DejaVuSans-2e" x="63.623047"/>
       <use xlink:href="#DejaVuSans-37" x="95.410156"/>
       <use xlink:href="#DejaVuSans-35" x="159.033203"/>
      </g>
     </g>
    </g>
    <g id="ytick_9">
     <g id="line2d_29">
      <path d="M 58.523438 34.414125 
L 415.643438 34.414125 
" clip-path="url(#pb9e816adb5)" style="fill: none; stroke: #b0b0b0; stroke-width: 0.8; stroke-linecap: square"/>
     </g>
     <g id="line2d_30">
      <g>
       <use xlink:href="#m0a3b1d3365" x="58.523438" y="34.414125" style="stroke: #000000; stroke-width: 0.8"/>
      </g>
     </g>
     <g id="text_16">
      <!-- 1.00 -->
      <g transform="translate(29.257813 38.213344) scale(0.1 -0.1)">
       <use xlink:href="#DejaVuSans-31"/>
       <use xlink:href="#DejaVuSans-2e" x="63.623047"/>
       <use xlink:href="#DejaVuSans-30" x="95.410156"/>
       <use xlink:href="#DejaVuSans-30" x="159.033203"/>
      </g>
     </g>
    </g>
    <g id="text_17">
     <!-- y -->
     <g transform="translate(14.798438 158.3335) rotate(-90) scale(0.1 -0.1)">
      <defs>
       <path id="DejaVuSans-79" d="M 2059 -325 
Q 1816 -950 1584 -1140 
Q 1353 -1331 966 -1331 
L 506 -1331 
L 506 -850 
L 844 -850 
Q 1081 -850 1212 -737 
Q 1344 -625 1503 -206 
L 1606 56 
L 191 3500 
L 800 3500 
L 1894 763 
L 2988 3500 
L 3597 3500 
L 2059 -325 
z
" transform="scale(0.015625)"/>
      </defs>
      <use xlink:href="#DejaVuSans-79"/>
     </g>
    </g>
   </g>
   <g id="line2d_31">
    <path d="M 74.756165 155.969485 
L 84.544744 155.85922 
L 91.070464 155.788963 
L 94.333323 155.913746 
L 99.227613 156.374452 
L 105.753332 157.073802 
L 109.016192 157.11137 
L 112.279052 156.752322 
L 115.541912 155.972887 
L 123.699061 153.353903 
L 125.330491 153.03782 
L 126.961921 152.893951 
L 128.593351 152.955456 
L 130.224781 153.243285 
L 131.85621 153.763179 
L 133.48764 154.503617 
L 135.11907 155.434938 
L 138.38193 157.6652 
L 141.64479 159.907596 
L 143.27622 160.825614 
L 144.907649 161.49793 
L 146.539079 161.853238 
L 148.170509 161.83682 
L 149.801939 161.416001 
L 151.433369 160.584391 
L 153.064799 159.364505 
L 154.696229 157.808452 
L 157.959088 154.033423 
L 161.221948 150.160149 
L 162.853378 148.522842 
L 164.484808 147.26184 
L 166.116238 146.491266 
L 167.747668 146.299327 
L 169.379098 146.74033 
L 171.010527 147.82859 
L 172.641957 149.534778 
L 174.273387 151.785123 
L 175.904817 154.463686 
L 180.799107 163.40971 
L 182.430537 166.044597 
L 184.061967 168.175305 
L 185.693396 169.628942 
L 187.324826 170.268295 
L 188.956256 170.003231 
L 190.587686 168.799485 
L 192.219116 166.68408 
L 193.850546 163.746828 
L 195.481976 160.137616 
L 198.744835 151.75741 
L 200.376265 147.504468 
L 202.007695 143.584301 
L 203.639125 140.27283 
L 205.270555 137.819263 
L 206.901985 136.428051 
L 208.533415 136.243016 
L 210.164845 137.334822 
L 211.796274 139.692801 
L 213.427704 143.221877 
L 215.059134 147.745036 
L 216.690564 153.0114 
L 221.584854 169.965734 
L 223.216284 174.777675 
L 224.847713 178.578324 
L 226.479143 181.076159 
L 228.110573 182.053027 
L 229.742003 181.381617 
L 231.373433 179.037587 
L 233.004863 175.105335 
L 234.636293 169.77678 
L 236.267723 163.342962 
L 242.793442 134.826553 
L 244.424872 129.323141 
L 246.056302 125.33266 
L 247.687732 123.169884 
L 249.319162 123.041914 
L 250.950591 125.03074 
L 252.582021 129.083413 
L 254.213451 135.010759 
L 255.844881 142.494998 
L 257.476311 151.106074 
L 262.370601 178.269378 
L 264.00203 185.816097 
L 265.63346 191.694352 
L 267.26489 195.470107 
L 268.89632 196.83158 
L 270.52775 195.613441 
L 272.15918 191.812212 
L 273.79061 185.591566 
L 275.42204 177.276879 
L 277.053469 167.339064 
L 283.579189 124.180907 
L 285.210619 116.034849 
L 286.842049 110.208627 
L 288.473479 107.144012 
L 290.104908 107.117261 
L 291.736338 110.216528 
L 293.367768 116.330874 
L 294.999198 125.151888 
L 296.630628 136.188183 
L 299.893488 162.19761 
L 303.156348 188.038979 
L 304.787777 198.792706 
L 306.419207 207.09253 
L 308.050637 212.342429 
L 309.682067 214.1271 
L 311.313497 212.243371 
L 312.944927 206.718684 
L 314.576357 197.815134 
L 316.207787 186.018432 
L 317.839216 172.012147 
L 322.733506 125.641344 
L 324.364936 112.004926 
L 325.996366 100.848493 
L 327.627796 92.94402 
L 329.259226 88.873014 
L 330.890655 88.984701 
L 332.522085 93.368235 
L 334.153515 101.841033 
L 335.784945 113.954347 
L 337.416375 129.01612 
L 340.679235 164.248384 
L 342.310665 182.236352 
L 343.942094 198.942608 
L 345.573524 213.273002 
L 347.204954 224.26196 
L 348.836384 231.137147 
L 350.467814 233.373083 
L 352.099244 230.729999 
L 353.730674 223.275147 
L 355.362104 211.384823 
L 356.993533 195.726572 
L 358.624963 177.222334 
L 363.519253 116.442897 
L 365.150683 98.710843 
L 366.782113 84.273285 
L 368.413543 74.11393 
L 370.044972 68.962268 
L 371.676402 69.242037 
L 373.307832 75.03832 
L 374.939262 86.085728 
L 376.570692 101.778826 
L 378.202122 121.204538 
L 381.464982 166.396878 
L 383.096411 189.355855 
L 384.727841 210.606391 
L 386.359271 228.765844 
L 387.990701 242.624137 
L 389.622131 251.22408 
L 391.253561 253.926929 
L 392.884991 250.458688 
L 394.516421 240.933885 
L 396.14785 225.854898 
L 397.77928 206.086461 
L 399.41071 182.806578 
L 399.41071 182.806578 
" clip-path="url(#pb9e816adb5)" style="fill: none; stroke: #000000; stroke-width: 1.5; stroke-linecap: square"/>
    <defs>
     <path id="m9321011174" d="M 0 3 
C 0.795609 3 1.55874 2.683901 2.12132 2.12132 
C 2.683901 1.55874 3 0.795609 3 0 
C 3 -0.795609 2.683901 -1.55874 2.12132 -2.12132 
C 1.55874 -2.683901 0.795609 -3 0 -3 
C -0.795609 -3 -1.55874 -2.683901 -2.12132 -2.12132 
C -2.683901 -1.55874 -3 -0.795609 -3 0 
C -3 0.795609 -2.683901 1.55874 -2.12132 2.12132 
C -1.55874 2.683901 -0.795609 3 0 3 
z
" style="stroke: #000000"/>
    </defs>
    <g clip-path="url(#pb9e816adb5)">
     <use xlink:href="#m9321011174" x="74.756165" y="155.969485" style="stroke: #000000"/>
     <use xlink:href="#m9321011174" x="91.070464" y="155.788963" style="stroke: #000000"/>
     <use xlink:href="#m9321011174" x="107.384762" y="157.135766" style="stroke: #000000"/>
     <use xlink:href="#m9321011174" x="123.699061" y="153.353903" style="stroke: #000000"/>
     <use xlink:href="#m9321011174" x="140.01336" y="158.825578" style="stroke: #000000"/>
     <use xlink:href="#m9321011174" x="156.327659" y="155.996491" style="stroke: #000000"/>
     <use xlink:href="#m9321011174" x="172.641957" y="149.534778" style="stroke: #000000"/>
     <use xlink:href="#m9321011174" x="188.956256" y="170.003231" style="stroke: #000000"/>
     <use xlink:href="#m9321011174" x="205.270555" y="137.819263" style="stroke: #000000"/>
     <use xlink:href="#m9321011174" x="221.584854" y="169.965734" style="stroke: #000000"/>
     <use xlink:href="#m9321011174" x="237.899152" y="156.178746" style="stroke: #000000"/>
     <use xlink:href="#m9321011174" x="254.213451" y="135.010759" style="stroke: #000000"/>
     <use xlink:href="#m9321011174" x="270.52775" y="195.613441" style="stroke: #000000"/>
     <use xlink:href="#m9321011174" x="286.842049" y="110.208627" style="stroke: #000000"/>
     <use xlink:href="#m9321011174" x="303.156348" y="188.038979" style="stroke: #000000"/>
     <use xlink:href="#m9321011174" x="319.470646" y="156.638534" style="stroke: #000000"/>
     <use xlink:href="#m9321011174" x="335.784945" y="113.954347" style="stroke: #000000"/>
     <use xlink:href="#m9321011174" x="352.099244" y="230.729999" style="stroke: #000000"/>
     <use xlink:href="#m9321011174" x="368.413543" y="74.11393" style="stroke: #000000"/>
     <use xlink:href="#m9321011174" x="384.727841" y="210.606391" style="stroke: #000000"/>
    </g>
   </g>
   <g id="line2d_32">
    <path d="M 74.756165 34.414125 
L 76.387595 38.232347 
L 78.019025 49.446761 
L 79.650454 67.351757 
L 81.281884 90.82083 
L 82.913314 118.377568 
L 87.807604 207.620878 
L 89.439034 233.312646 
L 91.070464 254.134916 
L 92.701893 268.781187 
L 94.333323 276.334125 
L 95.964753 276.323114 
L 97.596183 268.753623 
L 99.227613 254.106561 
L 100.859043 233.30768 
L 102.490473 207.668979 
L 105.753332 148.534939 
L 107.384762 118.76003 
L 109.016192 91.351717 
L 110.647622 68.029909 
L 112.279052 50.255685 
L 113.910482 39.139618 
L 115.541912 35.372274 
L 117.173342 39.181248 
L 118.804771 50.317412 
L 120.436201 68.071207 
L 122.067631 91.31792 
L 123.699061 118.589031 
L 128.593351 206.760473 
L 130.224781 232.100199 
L 131.85621 252.617312 
L 133.48764 267.031398 
L 135.11907 274.448021 
L 136.7505 274.41431 
L 138.38193 266.94664 
L 140.01336 252.528697 
L 141.64479 232.080143 
L 143.27622 206.897867 
L 146.539079 148.893251 
L 148.170509 119.723921 
L 149.801939 92.89647 
L 151.433369 70.090314 
L 153.064799 52.728149 
L 154.696229 41.88706 
L 156.327659 38.231605 
L 157.959088 41.973037 
L 159.590518 52.857165 
L 161.221948 70.181547 
L 162.853378 92.840862 
L 164.484808 119.397521 
L 169.379098 205.107457 
L 171.010527 229.694675 
L 172.641957 249.581663 
L 174.273387 263.534349 
L 175.904817 270.695404 
L 177.536247 270.636984 
L 179.167677 263.386265 
L 180.799107 249.422263 
L 182.430537 229.644216 
L 184.061967 205.313624 
L 187.324826 149.351259 
L 188.956256 121.247653 
L 190.587686 95.425057 
L 192.219116 73.495882 
L 193.850546 56.821923 
L 195.481976 46.429662 
L 197.113406 42.947004 
L 198.744835 46.565327 
L 200.376265 57.029163 
L 202.007695 73.654039 
L 203.639125 95.371244 
L 205.270555 120.796602 
L 210.164845 202.6939 
L 211.796274 226.139123 
L 213.427704 245.079745 
L 215.059134 258.347642 
L 216.690564 265.136308 
L 218.321994 265.049906 
L 219.953424 258.126254 
L 221.584854 244.832412 
L 223.216284 226.033284 
L 224.847713 202.935325 
L 228.110573 149.895226 
L 229.742003 123.300991 
L 231.373433 98.892091 
L 233.004863 78.188434 
L 234.636293 62.469291 
L 236.267723 52.694146 
L 237.899152 49.444076 
L 239.530582 52.887268 
L 241.162012 62.770685 
L 242.793442 78.438299 
L 244.424872 98.874567 
L 246.056302 122.770296 
L 250.950591 199.563651 
L 252.582021 221.494542 
L 254.213451 239.186319 
L 255.844881 251.555443 
L 257.476311 257.859232 
L 259.107741 257.740434 
L 260.739171 251.247274 
L 262.370601 238.827862 
L 264.00203 221.299479 
L 265.63346 199.794825 
L 272.15918 103.237632 
L 273.79061 84.089696 
L 275.42204 69.57818 
L 277.053469 60.580141 
L 278.684899 57.620317 
L 280.316329 60.840645 
L 281.947759 69.994099 
L 283.579189 84.463029 
L 285.210619 103.300703 
L 286.842049 125.293244 
L 291.736338 195.771552 
L 293.367768 215.838845 
L 294.999198 231.997891 
L 296.630628 243.267113 
L 298.262058 248.979733 
L 299.893488 248.823142 
L 301.524918 242.85567 
L 303.156348 231.499869 
L 304.787777 215.512942 
L 306.419207 195.936348 
L 312.944927 108.388211 
L 314.576357 91.102599 
L 316.207787 78.03365 
L 317.839216 69.961802 
L 319.470646 67.346731 
L 321.102076 70.301405 
L 322.733506 78.588189 
L 324.364936 91.637068 
L 325.996366 108.584605 
L 327.627796 128.331014 
L 332.522085 191.382487 
L 334.153515 209.26555 
L 335.784945 223.631132 
L 337.416375 233.61545 
L 339.047805 238.63859 
L 340.679235 238.438027 
L 342.310665 233.081818 
L 343.942094 222.960838 
L 345.573524 208.76078 
L 347.204954 191.415875 
L 353.730674 114.258076 
L 355.362104 99.112872 
L 356.993533 87.699759 
L 358.624963 80.68981 
L 360.256393 78.469872 
L 361.887823 81.121586 
L 363.519253 88.419876 
L 365.150683 99.850778 
L 366.782113 114.647262 
L 368.413543 131.840558 
L 373.307832 186.470278 
L 374.939262 201.882242 
L 376.570692 214.220987 
L 378.202122 222.754559 
L 379.833552 226.999569 
L 381.464982 226.748306 
L 383.096411 222.0781 
L 384.727841 213.342605 
L 386.359271 201.14576 
L 387.990701 186.300331 
L 394.516421 120.75061 
L 396.14785 107.990909 
L 397.77928 98.421749 
L 399.41071 92.593757 
L 399.41071 92.593757 
" clip-path="url(#pb9e816adb5)" style="fill: none; stroke-dasharray: 5.55,2.4; stroke-dashoffset: 0; stroke: #ff0000; stroke-width: 1.5"/>
    <defs>
     <path id="m65acc8d243" d="M -3 3 
L 3 3 
L 3 -3 
L -3 -3 
z
" style="stroke: #ff0000; stroke-linejoin: miter"/>
    </defs>
    <g clip-path="url(#pb9e816adb5)">
     <use xlink:href="#m65acc8d243" x="74.756165" y="34.414125" style="fill: #ff0000; stroke: #ff0000; stroke-linejoin: miter"/>
     <use xlink:href="#m65acc8d243" x="91.070464" y="254.134916" style="fill: #ff0000; stroke: #ff0000; stroke-linejoin: miter"/>
     <use xlink:href="#m65acc8d243" x="107.384762" y="118.76003" style="fill: #ff0000; stroke: #ff0000; stroke-linejoin: miter"/>
     <use xlink:href="#m65acc8d243" x="123.699061" y="118.589031" style="fill: #ff0000; stroke: #ff0000; stroke-linejoin: miter"/>
     <use xlink:href="#m65acc8d243" x="140.01336" y="252.528697" style="fill: #ff0000; stroke: #ff0000; stroke-linejoin: miter"/>
     <use xlink:href="#m65acc8d243" x="156.327659" y="38.231605" style="fill: #ff0000; stroke: #ff0000; stroke-linejoin: miter"/>
     <use xlink:href="#m65acc8d243" x="172.641957" y="249.581663" style="fill: #ff0000; stroke: #ff0000; stroke-linejoin: miter"/>
     <use xlink:href="#m65acc8d243" x="188.956256" y="121.247653" style="fill: #ff0000; stroke: #ff0000; stroke-linejoin: miter"/>
     <use xlink:href="#m65acc8d243" x="205.270555" y="120.796602" style="fill: #ff0000; stroke: #ff0000; stroke-linejoin: miter"/>
     <use xlink:href="#m65acc8d243" x="221.584854" y="244.832412" style="fill: #ff0000; stroke: #ff0000; stroke-linejoin: miter"/>
     <use xlink:href="#m65acc8d243" x="237.899152" y="49.444076" style="fill: #ff0000; stroke: #ff0000; stroke-linejoin: miter"/>
     <use xlink:href="#m65acc8d243" x="254.213451" y="239.186319" style="fill: #ff0000; stroke: #ff0000; stroke-linejoin: miter"/>
     <use xlink:href="#m65acc8d243" x="270.52775" y="125.84562" style="fill: #ff0000; stroke: #ff0000; stroke-linejoin: miter"/>
     <use xlink:href="#m65acc8d243" x="286.842049" y="125.293244" style="fill: #ff0000; stroke: #ff0000; stroke-linejoin: miter"/>
     <use xlink:href="#m65acc8d243" x="303.156348" y="231.499869" style="fill: #ff0000; stroke: #ff0000; stroke-linejoin: miter"/>
     <use xlink:href="#m65acc8d243" x="319.470646" y="67.346731" style="fill: #ff0000; stroke: #ff0000; stroke-linejoin: miter"/>
     <use xlink:href="#m65acc8d243" x="335.784945" y="223.631132" style="fill: #ff0000; stroke: #ff0000; stroke-linejoin: miter"/>
     <use xlink:href="#m65acc8d243" x="352.099244" y="132.21942" style="fill: #ff0000; stroke: #ff0000; stroke-linejoin: miter"/>
     <use xlink:href="#m65acc8d243" x="368.413543" y="131.840558" style="fill: #ff0000; stroke: #ff0000; stroke-linejoin: miter"/>
     <use xlink:href="#m65acc8d243" x="384.727841" y="213.342605" style="fill: #ff0000; stroke: #ff0000; stroke-linejoin: miter"/>
    </g>
   </g>
   <g id="patch_3">
    <path d="M 58.523438 288.430125 
L 58.523438 22.318125 
" style="fill: none; stroke: #000000; stroke-width: 0.8; stroke-linejoin: miter; stroke-linecap: square"/>
   </g>
   <g id="patch_4">
    <path d="M 415.643438 288.430125 
L 415.643438 22.318125 
" style="fill: none; stroke: #000000; stroke-width: 0.8; stroke-linejoin: miter; stroke-linecap: square"/>
   </g>
   <g id="patch_5">
    <path d="M 58.523438 288.430125 
L 415.643438 288.430125 
" style="fill: none; stroke: #000000; stroke-width: 0.8; stroke-linejoin: miter; stroke-linecap: square"/>
   </g>
   <g id="patch_6">
    <path d="M 58.523438 22.318125 
L 415.643438 22.318125 
" style="fill: none; stroke: #000000; stroke-width: 0.8; stroke-linejoin: miter; stroke-linecap: square"/>
   </g>
   <g id="text_18">
    <!-- Plot of f(x) and g(x) -->
    <g transform="translate(178.688438 16.318125) scale(0.12 -0.12)">
     <defs>
      <path id="DejaVuSans-50" d="M 1259 4147 
L 1259 2394 
L 2053 2394 
Q 2494 2394 2734 2622 
Q 2975 2850 2975 3272 
Q 2975 3691 2734 3919 
Q 2494 4147 2053 4147 
L 1259 4147 
z
M 628 4666 
L 2053 4666 
Q 2838 4666 3239 4311 
Q 3641 3956 3641 3272 
Q 3641 2581 3239 2228 
Q 2838 1875 2053 1875 
L 1259 1875 
L 1259 0 
L 628 0 
L 628 4666 
z
" transform="scale(0.015625)"/>
      <path id="DejaVuSans-6c" d="M 603 4863 
L 1178 4863 
L 1178 0 
L 603 0 
L 603 4863 
z
" transform="scale(0.015625)"/>
      <path id="DejaVuSans-6f" d="M 1959 3097 
Q 1497 3097 1228 2736 
Q 959 2375 959 1747 
Q 959 1119 1226 758 
Q 1494 397 1959 397 
Q 2419 397 2687 759 
Q 2956 1122 2956 1747 
Q 2956 2369 2687 2733 
Q 2419 3097 1959 3097 
z
M 1959 3584 
Q 2709 3584 3137 3096 
Q 3566 2609 3566 1747 
Q 3566 888 3137 398 
Q 2709 -91 1959 -91 
Q 1206 -91 779 398 
Q 353 888 353 1747 
Q 353 2609 779 3096 
Q 1206 3584 1959 3584 
z
" transform="scale(0.015625)"/>
      <path id="DejaVuSans-74" d="M 1172 4494 
L 1172 3500 
L 2356 3500 
L 2356 3053 
L 1172 3053 
L 1172 1153 
Q 1172 725 1289 603 
Q 1406 481 1766 481 
L 2356 481 
L 2356 0 
L 1766 0 
Q 1100 0 847 248 
Q 594 497 594 1153 
L 594 3053 
L 172 3053 
L 172 3500 
L 594 3500 
L 594 4494 
L 1172 4494 
z
" transform="scale(0.015625)"/>
      <path id="DejaVuSans-20" transform="scale(0.015625)"/>
      <path id="DejaVuSans-66" d="M 2375 4863 
L 2375 4384 
L 1825 4384 
Q 1516 4384 1395 4259 
Q 1275 4134 1275 3809 
L 1275 3500 
L 2222 3500 
L 2222 3053 
L 1275 3053 
L 1275 0 
L 697 0 
L 697 3053 
L 147 3053 
L 147 3500 
L 697 3500 
L 697 3744 
Q 697 4328 969 4595 
Q 1241 4863 1831 4863 
L 2375 4863 
z
" transform="scale(0.015625)"/>
      <path id="DejaVuSans-28" d="M 1984 4856 
Q 1566 4138 1362 3434 
Q 1159 2731 1159 2009 
Q 1159 1288 1364 580 
Q 1569 -128 1984 -844 
L 1484 -844 
Q 1016 -109 783 600 
Q 550 1309 550 2009 
Q 550 2706 781 3412 
Q 1013 4119 1484 4856 
L 1984 4856 
z
" transform="scale(0.015625)"/>
      <path id="DejaVuSans-29" d="M 513 4856 
L 1013 4856 
Q 1481 4119 1714 3412 
Q 1947 2706 1947 2009 
Q 1947 1309 1714 600 
Q 1481 -109 1013 -844 
L 513 -844 
Q 928 -128 1133 580 
Q 1338 1288 1338 2009 
Q 1338 2731 1133 3434 
Q 928 4138 513 4856 
z
" transform="scale(0.015625)"/>
      <path id="DejaVuSans-61" d="M 2194 1759 
Q 1497 1759 1228 1600 
Q 959 1441 959 1056 
Q 959 750 1161 570 
Q 1363 391 1709 391 
Q 2188 391 2477 730 
Q 2766 1069 2766 1631 
L 2766 1759 
L 2194 1759 
z
M 3341 1997 
L 3341 0 
L 2766 0 
L 2766 531 
Q 2569 213 2275 61 
Q 1981 -91 1556 -91 
Q 1019 -91 701 211 
Q 384 513 384 1019 
Q 384 1609 779 1909 
Q 1175 2209 1959 2209 
L 2766 2209 
L 2766 2266 
Q 2766 2663 2505 2880 
Q 2244 3097 1772 3097 
Q 1472 3097 1187 3025 
Q 903 2953 641 2809 
L 641 3341 
Q 956 3463 1253 3523 
Q 1550 3584 1831 3584 
Q 2591 3584 2966 3190 
Q 3341 2797 3341 1997 
z
" transform="scale(0.015625)"/>
      <path id="DejaVuSans-6e" d="M 3513 2113 
L 3513 0 
L 2938 0 
L 2938 2094 
Q 2938 2591 2744 2837 
Q 2550 3084 2163 3084 
Q 1697 3084 1428 2787 
Q 1159 2491 1159 1978 
L 1159 0 
L 581 0 
L 581 3500 
L 1159 3500 
L 1159 2956 
Q 1366 3272 1645 3428 
Q 1925 3584 2291 3584 
Q 2894 3584 3203 3211 
Q 3513 2838 3513 2113 
z
" transform="scale(0.015625)"/>
      <path id="DejaVuSans-64" d="M 2906 2969 
L 2906 4863 
L 3481 4863 
L 3481 0 
L 2906 0 
L 2906 525 
Q 2725 213 2448 61 
Q 2172 -91 1784 -91 
Q 1150 -91 751 415 
Q 353 922 353 1747 
Q 353 2572 751 3078 
Q 1150 3584 1784 3584 
Q 2172 3584 2448 3432 
Q 2725 3281 2906 2969 
z
M 947 1747 
Q 947 1113 1208 752 
Q 1469 391 1925 391 
Q 2381 391 2643 752 
Q 2906 1113 2906 1747 
Q 2906 2381 2643 2742 
Q 2381 3103 1925 3103 
Q 1469 3103 1208 2742 
Q 947 2381 947 1747 
z
" transform="scale(0.015625)"/>
      <path id="DejaVuSans-67" d="M 2906 1791 
Q 2906 2416 2648 2759 
Q 2391 3103 1925 3103 
Q 1463 3103 1205 2759 
Q 947 2416 947 1791 
Q 947 1169 1205 825 
Q 1463 481 1925 481 
Q 2391 481 2648 825 
Q 2906 1169 2906 1791 
z
M 3481 434 
Q 3481 -459 3084 -895 
Q 2688 -1331 1869 -1331 
Q 1566 -1331 1297 -1286 
Q 1028 -1241 775 -1147 
L 775 -588 
Q 1028 -725 1275 -790 
Q 1522 -856 1778 -856 
Q 2344 -856 2625 -561 
Q 2906 -266 2906 331 
L 2906 616 
Q 2728 306 2450 153 
Q 2172 0 1784 0 
Q 1141 0 747 490 
Q 353 981 353 1791 
Q 353 2603 747 3093 
Q 1141 3584 1784 3584 
Q 2172 3584 2450 3431 
Q 2728 3278 2906 2969 
L 2906 3500 
L 3481 3500 
L 3481 434 
z
" transform="scale(0.015625)"/>
     </defs>
     <use xlink:href="#DejaVuSans-50"/>
     <use xlink:href="#DejaVuSans-6c" x="60.302734"/>
     <use xlink:href="#DejaVuSans-6f" x="88.085938"/>
     <use xlink:href="#DejaVuSans-74" x="149.267578"/>
     <use xlink:href="#DejaVuSans-20" x="188.476562"/>
     <use xlink:href="#DejaVuSans-6f" x="220.263672"/>
     <use xlink:href="#DejaVuSans-66" x="281.445312"/>
     <use xlink:href="#DejaVuSans-20" x="316.650391"/>
     <use xlink:href="#DejaVuSans-66" x="348.4375"/>
     <use xlink:href="#DejaVuSans-28" x="383.642578"/>
     <use xlink:href="#DejaVuSans-78" x="422.65625"/>
     <use xlink:href="#DejaVuSans-29" x="481.835938"/>
     <use xlink:href="#DejaVuSans-20" x="520.849609"/>
     <use xlink:href="#DejaVuSans-61" x="552.636719"/>
     <use xlink:href="#DejaVuSans-6e" x="613.916016"/>
     <use xlink:href="#DejaVuSans-64" x="677.294922"/>
     <use xlink:href="#DejaVuSans-20" x="740.771484"/>
     <use xlink:href="#DejaVuSans-67" x="772.558594"/>
     <use xlink:href="#DejaVuSans-28" x="836.035156"/>
     <use xlink:href="#DejaVuSans-78" x="875.048828"/>
     <use xlink:href="#DejaVuSans-29" x="934.228516"/>
    </g>
   </g>
   <g id="legend_1">
    <g id="patch_7">
     <path d="M 356.573125 59.674375 
L 408.643438 59.674375 
Q 410.643438 59.674375 410.643438 57.674375 
L 410.643438 29.318125 
Q 410.643438 27.318125 408.643438 27.318125 
L 356.573125 27.318125 
Q 354.573125 27.318125 354.573125 29.318125 
L 354.573125 57.674375 
Q 354.573125 59.674375 356.573125 59.674375 
z
" style="fill: #ffffff; opacity: 0.8; stroke: #cccccc; stroke-linejoin: miter"/>
    </g>
    <g id="line2d_33">
     <path d="M 358.573125 35.416562 
L 368.573125 35.416562 
L 378.573125 35.416562 
" style="fill: none; stroke: #000000; stroke-width: 1.5; stroke-linecap: square"/>
     <g>
      <use xlink:href="#m9321011174" x="368.573125" y="35.416562" style="stroke: #000000"/>
     </g>
    </g>
    <g id="text_19">
     <!-- f(x) -->
     <g transform="translate(386.573125 38.916562) scale(0.1 -0.1)">
      <use xlink:href="#DejaVuSans-66"/>
      <use xlink:href="#DejaVuSans-28" x="35.205078"/>
      <use xlink:href="#DejaVuSans-78" x="74.21875"/>
      <use xlink:href="#DejaVuSans-29" x="133.398438"/>
     </g>
    </g>
    <g id="line2d_34">
     <path d="M 358.573125 50.094687 
L 368.573125 50.094687 
L 378.573125 50.094687 
" style="fill: none; stroke-dasharray: 5.55,2.4; stroke-dashoffset: 0; stroke: #ff0000; stroke-width: 1.5"/>
     <g>
      <use xlink:href="#m65acc8d243" x="368.573125" y="50.094687" style="fill: #ff0000; stroke: #ff0000; stroke-linejoin: miter"/>
     </g>
    </g>
    <g id="text_20">
     <!-- g(x) -->
     <g transform="translate(386.573125 53.594687) scale(0.1 -0.1)">
      <use xlink:href="#DejaVuSans-67"/>
      <use xlink:href="#DejaVuSans-28" x="63.476562"/>
      <use xlink:href="#DejaVuSans-78" x="102.490234"/>
      <use xlink:href="#DejaVuSans-29" x="161.669922"/>
     </g>
    </g>
   </g>
  </g>
 </g>
 <defs>
  <clipPath id="pb9e816adb5">
   <rect x="58.523438" y="22.318125" width="357.12" height="266.112"/>
  </clipPath>
 </defs>
</svg>