<?xml version="1.0" encoding="utf-8" standalone="no"?>
<!DOCTYPE svg PUBLIC "-//W3C//DTD SVG 1.1//EN"
  "http://www.w3.org/Graphics/SVG/1.1/DTD/svg11.dtd">
<svg xmlns:xlink="http://www.w3.org/1999/xlink" width="538.342187pt" height="267.95625pt" viewBox="0 0 538.342187 267.95625" xmlns="http://www.w3.org/2000/svg" version="1.1">
 <metadata>
  <rdf:RDF xmlns:dc="http://purl.org/dc/elements/1.1/" xmlns:cc="http://creativecommons.org/ns#" xmlns:rdf="http://www.w3.org/1999/02/22-rdf-syntax-ns#">
   <cc:Work>
    <dc:type rdf:resource="http://purl.org/dc/dcmitype/StillImage"/>
    <dc:date>2024-12-13T09:21:12.762959</dc:date>
    <dc:format>image/svg+xml</dc:format>
    <dc:creator>
     <cc:Agent>
      <dc:title>Matplotlib v3.9.2, https://matplotlib.org/</dc:title>
     </cc:Agent>
    </dc:creator>
   </cc:Work>
  </rdf:RDF>
 </metadata>
 <defs>
  <style type="text/css">*{stroke-linejoin: round; stroke-linecap: butt}</style>
 </defs>
 <g id="figure_1">
  <g id="patch_1">
   <path d="M 0 267.95625 
L 538.342187 267.95625 
L 538.342187 0 
L 0 0 
z
" style="fill: #ffffff"/>
  </g>
  <g id="axes_1">
   <g id="patch_2">
    <path d="M 28.942188 244.078125 
L 257.214915 244.078125 
L 257.214915 22.318125 
L 28.942188 22.318125 
z
" style="fill: #ffffff"/>
   </g>
   <g id="matplotlib.axis_1">
    <g id="xtick_1">
     <g id="line2d_1">
      <path d="M 39.318221 244.078125 
L 39.318221 22.318125 
" clip-path="url(#p590e47b9a9)" style="fill: none; stroke: #b0b0b0; stroke-width: 0.8; stroke-linecap: square"/>
     </g>
     <g id="line2d_2">
      <defs>
       <path id="mfc93002f02" d="M 0 0 
L 0 3.5 
" style="stroke: #000000; stroke-width: 0.8"/>
      </defs>
      <g>
       <use xlink:href="#mfc93002f02" x="39.318221" y="244.078125" style="stroke: #000000; stroke-width: 0.8"/>
      </g>
     </g>
     <g id="text_1">
      <!-- 0.0 -->
      <g transform="translate(31.366658 258.676562) scale(0.1 -0.1)">
       <defs>
        <path id="DejaVuSans-30" d="M 2034 4250 
Q 1547 4250 1301 3770 
Q 1056 3291 1056 2328 
Q 1056 1369 1301 889 
Q 1547 409 2034 409 
Q 2525 409 2770 889 
Q 3016 1369 3016 2328 
Q 3016 3291 2770 3770 
Q 2525 4250 2034 4250 
z
M 2034 4750 
Q 2819 4750 3233 4129 
Q 3647 3509 3647 2328 
Q 3647 1150 3233 529 
Q 2819 -91 2034 -91 
Q 1250 -91 836 529 
Q 422 1150 422 2328 
Q 422 3509 836 4129 
Q 1250 4750 2034 4750 
z
" transform="scale(0.015625)"/>
        <path id="DejaVuSans-2e" d="M 684 794 
L 1344 794 
L 1344 0 
L 684 0 
L 684 794 
z
" transform="scale(0.015625)"/>
       </defs>
       <use xlink:href="#DejaVuSans-30"/>
       <use xlink:href="#DejaVuSans-2e" x="63.623047"/>
       <use xlink:href="#DejaVuSans-30" x="95.410156"/>
      </g>
     </g>
    </g>
    <g id="xtick_2">
     <g id="line2d_3">
      <path d="M 80.822353 244.078125 
L 80.822353 22.318125 
" clip-path="url(#p590e47b9a9)" style="fill: none; stroke: #b0b0b0; stroke-width: 0.8; stroke-linecap: square"/>
     </g>
     <g id="line2d_4">
      <g>
       <use xlink:href="#mfc93002f02" x="80.822353" y="244.078125" style="stroke: #000000; stroke-width: 0.8"/>
      </g>
     </g>
     <g id="text_2">
      <!-- 0.2 -->
      <g transform="translate(72.87079 258.676562) scale(0.1 -0.1)">
       <defs>
        <path id="DejaVuSans-32" d="M 1228 531 
L 3431 531 
L 3431 0 
L 469 0 
L 469 531 
Q 828 903 1448 1529 
Q 2069 2156 2228 2338 
Q 2531 2678 2651 2914 
Q 2772 3150 2772 3378 
Q 2772 3750 2511 3984 
Q 2250 4219 1831 4219 
Q 1534 4219 1204 4116 
Q 875 4013 500 3803 
L 500 4441 
Q 881 4594 1212 4672 
Q 1544 4750 1819 4750 
Q 2544 4750 2975 4387 
Q 3406 4025 3406 3419 
Q 3406 3131 3298 2873 
Q 3191 2616 2906 2266 
Q 2828 2175 2409 1742 
Q 1991 1309 1228 531 
z
" transform="scale(0.015625)"/>
       </defs>
       <use xlink:href="#DejaVuSans-30"/>
       <use xlink:href="#DejaVuSans-2e" x="63.623047"/>
       <use xlink:href="#DejaVuSans-32" x="95.410156"/>
      </g>
     </g>
    </g>
    <g id="xtick_3">
     <g id="line2d_5">
      <path d="M 122.326485 244.078125 
L 122.326485 22.318125 
" clip-path="url(#p590e47b9a9)" style="fill: none; stroke: #b0b0b0; stroke-width: 0.8; stroke-linecap: square"/>
     </g>
     <g id="line2d_6">
      <g>
       <use xlink:href="#mfc93002f02" x="122.326485" y="244.078125" style="stroke: #000000; stroke-width: 0.8"/>
      </g>
     </g>
     <g id="text_3">
      <!-- 0.4 -->
      <g transform="translate(114.374923 258.676562) scale(0.1 -0.1)">
       <defs>
        <path id="DejaVuSans-34" d="M 2419 4116 
L 825 1625 
L 2419 1625 
L 2419 4116 
z
M 2253 4666 
L 3047 4666 
L 3047 1625 
L 3713 1625 
L 3713 1100 
L 3047 1100 
L 3047 0 
L 2419 0 
L 2419 1100 
L 313 1100 
L 313 1709 
L 2253 4666 
z
" transform="scale(0.015625)"/>
       </defs>
       <use xlink:href="#DejaVuSans-30"/>
       <use xlink:href="#DejaVuSans-2e" x="63.623047"/>
       <use xlink:href="#DejaVuSans-34" x="95.410156"/>
      </g>
     </g>
    </g>
    <g id="xtick_4">
     <g id="line2d_7">
      <path d="M 163.830617 244.078125 
L 163.830617 22.318125 
" clip-path="url(#p590e47b9a9)" style="fill: none; stroke: #b0b0b0; stroke-width: 0.8; stroke-linecap: square"/>
     </g>
     <g id="line2d_8">
      <g>
       <use xlink:href="#mfc93002f02" x="163.830617" y="244.078125" style="stroke: #000000; stroke-width: 0.8"/>
      </g>
     </g>
     <g id="text_4">
      <!-- 0.6 -->
      <g transform="translate(155.879055 258.676562) scale(0.1 -0.1)">
       <defs>
        <path id="DejaVuSans-36" d="M 2113 2584 
Q 1688 2584 1439 2293 
Q 1191 2003 1191 1497 
Q 1191 994 1439 701 
Q 1688 409 2113 409 
Q 2538 409 2786 701 
Q 3034 994 3034 1497 
Q 3034 2003 2786 2293 
Q 2538 2584 2113 2584 
z
M 3366 4563 
L 3366 3988 
Q 3128 4100 2886 4159 
Q 2644 4219 2406 4219 
Q 1781 4219 1451 3797 
Q 1122 3375 1075 2522 
Q 1259 2794 1537 2939 
Q 1816 3084 2150 3084 
Q 2853 3084 3261 2657 
Q 3669 2231 3669 1497 
Q 3669 778 3244 343 
Q 2819 -91 2113 -91 
Q 1303 -91 875 529 
Q 447 1150 447 2328 
Q 447 3434 972 4092 
Q 1497 4750 2381 4750 
Q 2619 4750 2861 4703 
Q 3103 4656 3366 4563 
z
" transform="scale(0.015625)"/>
       </defs>
       <use xlink:href="#DejaVuSans-30"/>
       <use xlink:href="#DejaVuSans-2e" x="63.623047"/>
       <use xlink:href="#DejaVuSans-36" x="95.410156"/>
      </g>
     </g>
    </g>
    <g id="xtick_5">
     <g id="line2d_9">
      <path d="M 205.334749 244.078125 
L 205.334749 22.318125 
" clip-path="url(#p590e47b9a9)" style="fill: none; stroke: #b0b0b0; stroke-width: 0.8; stroke-linecap: square"/>
     </g>
     <g id="line2d_10">
      <g>
       <use xlink:href="#mfc93002f02" x="205.334749" y="244.078125" style="stroke: #000000; stroke-width: 0.8"/>
      </g>
     </g>
     <g id="text_5">
      <!-- 0.8 -->
      <g transform="translate(197.383187 258.676562) scale(0.1 -0.1)">
       <defs>
        <path id="DejaVuSans-38" d="M 2034 2216 
Q 1584 2216 1326 1975 
Q 1069 1734 1069 1313 
Q 1069 891 1326 650 
Q 1584 409 2034 409 
Q 2484 409 2743 651 
Q 3003 894 3003 1313 
Q 3003 1734 2745 1975 
Q 2488 2216 2034 2216 
z
M 1403 2484 
Q 997 2584 770 2862 
Q 544 3141 544 3541 
Q 544 4100 942 4425 
Q 1341 4750 2034 4750 
Q 2731 4750 3128 4425 
Q 3525 4100 3525 3541 
Q 3525 3141 3298 2862 
Q 3072 2584 2669 2484 
Q 3125 2378 3379 2068 
Q 3634 1759 3634 1313 
Q 3634 634 3220 271 
Q 2806 -91 2034 -91 
Q 1263 -91 848 271 
Q 434 634 434 1313 
Q 434 1759 690 2068 
Q 947 2378 1403 2484 
z
M 1172 3481 
Q 1172 3119 1398 2916 
Q 1625 2713 2034 2713 
Q 2441 2713 2670 2916 
Q 2900 3119 2900 3481 
Q 2900 3844 2670 4047 
Q 2441 4250 2034 4250 
Q 1625 4250 1398 4047 
Q 1172 3844 1172 3481 
z
" transform="scale(0.015625)"/>
       </defs>
       <use xlink:href="#DejaVuSans-30"/>
       <use xlink:href="#DejaVuSans-2e" x="63.623047"/>
       <use xlink:href="#DejaVuSans-38" x="95.410156"/>
      </g>
     </g>
    </g>
    <g id="xtick_6">
     <g id="line2d_11">
      <path d="M 246.838882 244.078125 
L 246.838882 22.318125 
" clip-path="url(#p590e47b9a9)" style="fill: none; stroke: #b0b0b0; stroke-width: 0.8; stroke-linecap: square"/>
     </g>
     <g id="line2d_12">
      <g>
       <use xlink:href="#mfc93002f02" x="246.838882" y="244.078125" style="stroke: #000000; stroke-width: 0.8"/>
      </g>
     </g>
     <g id="text_6">
      <!-- 1.0 -->
      <g transform="translate(238.887319 258.676562) scale(0.1 -0.1)">
       <defs>
        <path id="DejaVuSans-31" d="M 794 531 
L 1825 531 
L 1825 4091 
L 703 3866 
L 703 4441 
L 1819 4666 
L 2450 4666 
L 2450 531 
L 3481 531 
L 3481 0 
L 794 0 
L 794 531 
z
" transform="scale(0.015625)"/>
       </defs>
       <use xlink:href="#DejaVuSans-31"/>
       <use xlink:href="#DejaVuSans-2e" x="63.623047"/>
       <use xlink:href="#DejaVuSans-30" x="95.410156"/>
      </g>
     </g>
    </g>
   </g>
   <g id="matplotlib.axis_2">
    <g id="ytick_1">
     <g id="line2d_13">
      <path d="M 28.942188 209.758772 
L 257.214915 209.758772 
" clip-path="url(#p590e47b9a9)" style="fill: none; stroke: #b0b0b0; stroke-width: 0.8; stroke-linecap: square"/>
     </g>
     <g id="line2d_14">
      <defs>
       <path id="m97a52374a6" d="M 0 0 
L -3.5 0 
" style="stroke: #000000; stroke-width: 0.8"/>
      </defs>
      <g>
       <use xlink:href="#m97a52374a6" x="28.942188" y="209.758772" style="stroke: #000000; stroke-width: 0.8"/>
      </g>
     </g>
     <g id="text_7">
      <!-- −2 -->
      <g transform="translate(7.2 213.557991) scale(0.1 -0.1)">
       <defs>
        <path id="DejaVuSans-2212" d="M 678 2272 
L 4684 2272 
L 4684 1741 
L 678 1741 
L 678 2272 
z
" transform="scale(0.015625)"/>
       </defs>
       <use xlink:href="#DejaVuSans-2212"/>
       <use xlink:href="#DejaVuSans-32" x="83.789062"/>
      </g>
     </g>
    </g>
    <g id="ytick_2">
     <g id="line2d_15">
      <path d="M 28.942188 168.04765 
L 257.214915 168.04765 
" clip-path="url(#p590e47b9a9)" style="fill: none; stroke: #b0b0b0; stroke-width: 0.8; stroke-linecap: square"/>
     </g>
     <g id="line2d_16">
      <g>
       <use xlink:href="#m97a52374a6" x="28.942188" y="168.04765" style="stroke: #000000; stroke-width: 0.8"/>
      </g>
     </g>
     <g id="text_8">
      <!-- −1 -->
      <g transform="translate(7.2 171.846869) scale(0.1 -0.1)">
       <use xlink:href="#DejaVuSans-2212"/>
       <use xlink:href="#DejaVuSans-31" x="83.789062"/>
      </g>
     </g>
    </g>
    <g id="ytick_3">
     <g id="line2d_17">
      <path d="M 28.942188 126.336528 
L 257.214915 126.336528 
" clip-path="url(#p590e47b9a9)" style="fill: none; stroke: #b0b0b0; stroke-width: 0.8; stroke-linecap: square"/>
     </g>
     <g id="line2d_18">
      <g>
       <use xlink:href="#m97a52374a6" x="28.942188" y="126.336528" style="stroke: #000000; stroke-width: 0.8"/>
      </g>
     </g>
     <g id="text_9">
      <!-- 0 -->
      <g transform="translate(15.579688 130.135747) scale(0.1 -0.1)">
       <use xlink:href="#DejaVuSans-30"/>
      </g>
     </g>
    </g>
    <g id="ytick_4">
     <g id="line2d_19">
      <path d="M 28.942188 84.625406 
L 257.214915 84.625406 
" clip-path="url(#p590e47b9a9)" style="fill: none; stroke: #b0b0b0; stroke-width: 0.8; stroke-linecap: square"/>
     </g>
     <g id="line2d_20">
      <g>
       <use xlink:href="#m97a52374a6" x="28.942188" y="84.625406" style="stroke: #000000; stroke-width: 0.8"/>
      </g>
     </g>
     <g id="text_10">
      <!-- 1 -->
      <g transform="translate(15.579688 88.424624) scale(0.1 -0.1)">
       <use xlink:href="#DejaVuSans-31"/>
      </g>
     </g>
    </g>
    <g id="ytick_5">
     <g id="line2d_21">
      <path d="M 28.942188 42.914283 
L 257.214915 42.914283 
" clip-path="url(#p590e47b9a9)" style="fill: none; stroke: #b0b0b0; stroke-width: 0.8; stroke-linecap: square"/>
     </g>
     <g id="line2d_22">
      <g>
       <use xlink:href="#m97a52374a6" x="28.942188" y="42.914283" style="stroke: #000000; stroke-width: 0.8"/>
      </g>
     </g>
     <g id="text_11">
      <!-- 2 -->
      <g transform="translate(15.579688 46.713502) scale(0.1 -0.1)">
       <use xlink:href="#DejaVuSans-32"/>
      </g>
     </g>
    </g>
   </g>
   <g id="line2d_23">
    <path d="M 39.318221 126.336528 
L 41.403855 126.132586 
L 43.48949 125.614388 
L 45.575125 125.043003 
L 47.66076 124.756628 
L 48.703577 124.814955 
L 49.746394 125.039748 
L 50.789212 125.437755 
L 51.832029 125.999427 
L 53.917664 127.49259 
L 56.003299 129.13427 
L 57.046116 129.846198 
L 58.088934 130.392419 
L 59.131751 130.709698 
L 60.174568 130.74698 
L 61.217386 130.470527 
L 62.260203 129.868033 
L 63.303021 128.951315 
L 64.345838 127.757295 
L 66.431473 124.803211 
L 68.517108 121.721822 
L 69.559925 120.406902 
L 70.602742 119.387954 
L 71.64556 118.759563 
L 72.688377 118.59528 
L 73.731195 118.940897 
L 74.774012 119.809347 
L 75.816829 121.177674 
L 76.859647 122.986408 
L 78.945281 127.518983 
L 81.030916 132.338127 
L 82.073734 134.453417 
L 83.116551 136.159907 
L 84.159368 137.318815 
L 85.202186 137.820759 
L 86.245003 137.594863 
L 87.287821 136.61565 
L 88.330638 134.907163 
L 89.373455 132.543873 
L 90.416273 129.648167 
L 94.587542 116.451127 
L 95.63036 113.831366 
L 96.673177 111.900649 
L 97.715995 110.818725 
L 98.758812 110.696401 
L 99.801629 111.585942 
L 100.844447 113.474988 
L 101.887264 116.28455 
L 102.930082 119.871382 
L 105.015716 128.527344 
L 107.101351 137.367368 
L 108.144168 141.129841 
L 109.186986 144.089822 
L 110.229803 146.021843 
L 111.272621 146.758771 
L 112.315438 146.205104 
L 113.358255 144.346032 
L 114.401073 141.25151 
L 115.44389 137.074881 
L 116.486708 132.045954 
L 120.657977 109.872258 
L 121.700795 105.616659 
L 122.743612 102.54211 
L 123.786429 100.889653 
L 124.829247 100.816435 
L 125.872064 102.382548 
L 126.914882 105.543767 
L 127.957699 110.150871 
L 129.000516 115.955801 
L 131.086151 129.75568 
L 133.171786 143.611684 
L 134.214603 149.429313 
L 135.257421 153.95393 
L 136.300238 156.852281 
L 137.343055 157.88555 
L 138.385873 156.927821 
L 139.42869 153.977795 
L 140.471508 149.162756 
L 141.514325 142.734317 
L 143.59996 126.582957 
L 145.685595 109.36793 
L 146.728412 101.732194 
L 147.771229 95.443842 
L 148.814047 90.946782 
L 149.856864 88.582685 
L 150.899682 88.565942 
L 151.942499 90.966128 
L 152.985316 95.699333 
L 154.028134 102.529164 
L 155.070951 111.077627 
L 157.156586 131.240949 
L 159.242221 151.303017 
L 160.285038 159.664123 
L 161.327856 166.126168 
L 162.370673 170.222874 
L 163.41349 171.627051 
L 164.456308 170.175414 
L 165.499125 165.883523 
L 166.541942 158.949586 
L 167.58476 149.746611 
L 169.670395 126.773113 
L 171.756029 102.459691 
L 172.798847 91.733994 
L 173.841664 82.938248 
L 174.884482 76.684954 
L 175.927299 73.439524 
L 176.970116 73.486646 
L 178.012934 76.907414 
L 179.055751 83.568952 
L 180.098569 93.127533 
L 181.141386 105.045314 
L 183.227021 133.025544 
L 185.312656 160.713196 
L 186.355473 172.200729 
L 187.39829 181.045677 
L 188.441108 186.618618 
L 189.483925 188.48405 
L 190.526743 186.432973 
L 191.56956 180.501743 
L 192.612377 170.975629 
L 193.655195 158.376523 
L 195.740829 127.049363 
L 197.826464 94.041338 
L 198.869282 79.529624 
L 199.912099 67.660319 
L 200.954916 59.252157 
L 201.997734 54.921851 
L 203.040551 55.039987 
L 204.083369 59.701654 
L 205.126186 68.714037 
L 206.169003 81.60215 
L 207.211821 97.632757 
L 209.297456 135.158016 
L 211.38309 172.160392 
L 212.425908 187.46861 
L 213.468725 199.22752 
L 214.511543 206.60869 
L 215.55436 209.044543 
L 216.597177 206.270375 
L 217.639995 198.347938 
L 218.682812 185.66868 
L 219.72563 168.93598 
L 221.811264 127.436645 
L 223.896899 83.837152 
L 224.939716 64.711655 
L 225.982534 49.094988 
L 227.025351 38.056874 
L 228.068169 32.398125 
L 229.110986 32.593819 
L 230.153803 38.756067 
L 231.196621 50.619158 
L 232.239438 67.548518 
L 233.282256 88.573395 
L 235.36789 137.693882 
L 237.453525 186.016592 
L 238.496343 205.970519 
L 239.53916 221.275099 
L 240.581977 230.860275 
L 241.624795 233.998125 
L 242.667612 230.356303 
L 243.71043 220.027334 
L 244.753247 203.53142 
L 245.796064 181.792029 
L 246.838882 156.085267 
L 246.838882 156.085267 
" clip-path="url(#p590e47b9a9)" style="fill: none; stroke: #1f77b4; stroke-width: 1.5; stroke-linecap: square"/>
   </g>
   <g id="patch_3">
    <path d="M 28.942188 244.078125 
L 28.942188 22.318125 
" style="fill: none; stroke: #000000; stroke-width: 0.8; stroke-linejoin: miter; stroke-linecap: square"/>
   </g>
   <g id="patch_4">
    <path d="M 257.214915 244.078125 
L 257.214915 22.318125 
" style="fill: none; stroke: #000000; stroke-width: 0.8; stroke-linejoin: miter; stroke-linecap: square"/>
   </g>
   <g id="patch_5">
    <path d="M 28.942188 244.078125 
L 257.214915 244.078125 
" style="fill: none; stroke: #000000; stroke-width: 0.8; stroke-linejoin: miter; stroke-linecap: square"/>
   </g>
   <g id="patch_6">
    <path d="M 28.942188 22.318125 
L 257.214915 22.318125 
" style="fill: none; stroke: #000000; stroke-width: 0.8; stroke-linejoin: miter; stroke-linecap: square"/>
   </g>
   <g id="text_12">
    <!-- f(x) = x*exp(x)*sin(50*x) -->
    <g transform="translate(67.696989 16.318125) scale(0.12 -0.12)">
     <defs>
      <path id="DejaVuSans-66" d="M 2375 4863 
L 2375 4384 
L 1825 4384 
Q 1516 4384 1395 4259 
Q 1275 4134 1275 3809 
L 1275 3500 
L 2222 3500 
L 2222 3053 
L 1275 3053 
L 1275 0 
L 697 0 
L 697 3053 
L 147 3053 
L 147 3500 
L 697 3500 
L 697 3744 
Q 697 4328 969 4595 
Q 1241 4863 1831 4863 
L 2375 4863 
z
" transform="scale(0.015625)"/>
      <path id="DejaVuSans-28" d="M 1984 4856 
Q 1566 4138 1362 3434 
Q 1159 2731 1159 2009 
Q 1159 1288 1364 580 
Q 1569 -128 1984 -844 
L 1484 -844 
Q 1016 -109 783 600 
Q 550 1309 550 2009 
Q 550 2706 781 3412 
Q 1013 4119 1484 4856 
L 1984 4856 
z
" transform="scale(0.015625)"/>
      <path id="DejaVuSans-78" d="M 3513 3500 
L 2247 1797 
L 3578 0 
L 2900 0 
L 1881 1375 
L 863 0 
L 184 0 
L 1544 1831 
L 300 3500 
L 978 3500 
L 1906 2253 
L 2834 3500 
L 3513 3500 
z
" transform="scale(0.015625)"/>
      <path id="DejaVuSans-29" d="M 513 4856 
L 1013 4856 
Q 1481 4119 1714 3412 
Q 1947 2706 1947 2009 
Q 1947 1309 1714 600 
Q 1481 -109 1013 -844 
L 513 -844 
Q 928 -128 1133 580 
Q 1338 1288 1338 2009 
Q 1338 2731 1133 3434 
Q 928 4138 513 4856 
z
" transform="scale(0.015625)"/>
      <path id="DejaVuSans-20" transform="scale(0.015625)"/>
      <path id="DejaVuSans-3d" d="M 678 2906 
L 4684 2906 
L 4684 2381 
L 678 2381 
L 678 2906 
z
M 678 1631 
L 4684 1631 
L 4684 1100 
L 678 1100 
L 678 1631 
z
" transform="scale(0.015625)"/>
      <path id="DejaVuSans-2a" d="M 3009 3897 
L 1888 3291 
L 3009 2681 
L 2828 2375 
L 1778 3009 
L 1778 1831 
L 1422 1831 
L 1422 3009 
L 372 2375 
L 191 2681 
L 1313 3291 
L 191 3897 
L 372 4206 
L 1422 3572 
L 1422 4750 
L 1778 4750 
L 1778 3572 
L 2828 4206 
L 3009 3897 
z
" transform="scale(0.015625)"/>
      <path id="DejaVuSans-65" d="M 3597 1894 
L 3597 1613 
L 953 1613 
Q 991 1019 1311 708 
Q 1631 397 2203 397 
Q 2534 397 2845 478 
Q 3156 559 3463 722 
L 3463 178 
Q 3153 47 2828 -22 
Q 2503 -91 2169 -91 
Q 1331 -91 842 396 
Q 353 884 353 1716 
Q 353 2575 817 3079 
Q 1281 3584 2069 3584 
Q 2775 3584 3186 3129 
Q 3597 2675 3597 1894 
z
M 3022 2063 
Q 3016 2534 2758 2815 
Q 2500 3097 2075 3097 
Q 1594 3097 1305 2825 
Q 1016 2553 972 2059 
L 3022 2063 
z
" transform="scale(0.015625)"/>
      <path id="DejaVuSans-70" d="M 1159 525 
L 1159 -1331 
L 581 -1331 
L 581 3500 
L 1159 3500 
L 1159 2969 
Q 1341 3281 1617 3432 
Q 1894 3584 2278 3584 
Q 2916 3584 3314 3078 
Q 3713 2572 3713 1747 
Q 3713 922 3314 415 
Q 2916 -91 2278 -91 
Q 1894 -91 1617 61 
Q 1341 213 1159 525 
z
M 3116 1747 
Q 3116 2381 2855 2742 
Q 2594 3103 2138 3103 
Q 1681 3103 1420 2742 
Q 1159 2381 1159 1747 
Q 1159 1113 1420 752 
Q 1681 391 2138 391 
Q 2594 391 2855 752 
Q 3116 1113 3116 1747 
z
" transform="scale(0.015625)"/>
      <path id="DejaVuSans-73" d="M 2834 3397 
L 2834 2853 
Q 2591 2978 2328 3040 
Q 2066 3103 1784 3103 
Q 1356 3103 1142 2972 
Q 928 2841 928 2578 
Q 928 2378 1081 2264 
Q 1234 2150 1697 2047 
L 1894 2003 
Q 2506 1872 2764 1633 
Q 3022 1394 3022 966 
Q 3022 478 2636 193 
Q 2250 -91 1575 -91 
Q 1294 -91 989 -36 
Q 684 19 347 128 
L 347 722 
Q 666 556 975 473 
Q 1284 391 1588 391 
Q 1994 391 2212 530 
Q 2431 669 2431 922 
Q 2431 1156 2273 1281 
Q 2116 1406 1581 1522 
L 1381 1569 
Q 847 1681 609 1914 
Q 372 2147 372 2553 
Q 372 3047 722 3315 
Q 1072 3584 1716 3584 
Q 2034 3584 2315 3537 
Q 2597 3491 2834 3397 
z
" transform="scale(0.015625)"/>
      <path id="DejaVuSans-69" d="M 603 3500 
L 1178 3500 
L 1178 0 
L 603 0 
L 603 3500 
z
M 603 4863 
L 1178 4863 
L 1178 4134 
L 603 4134 
L 603 4863 
z
" transform="scale(0.015625)"/>
      <path id="DejaVuSans-6e" d="M 3513 2113 
L 3513 0 
L 2938 0 
L 2938 2094 
Q 2938 2591 2744 2837 
Q 2550 3084 2163 3084 
Q 1697 3084 1428 2787 
Q 1159 2491 1159 1978 
L 1159 0 
L 581 0 
L 581 3500 
L 1159 3500 
L 1159 2956 
Q 1366 3272 1645 3428 
Q 1925 3584 2291 3584 
Q 2894 3584 3203 3211 
Q 3513 2838 3513 2113 
z
" transform="scale(0.015625)"/>
      <path id="DejaVuSans-35" d="M 691 4666 
L 3169 4666 
L 3169 4134 
L 1269 4134 
L 1269 2991 
Q 1406 3038 1543 3061 
Q 1681 3084 1819 3084 
Q 2600 3084 3056 2656 
Q 3513 2228 3513 1497 
Q 3513 744 3044 326 
Q 2575 -91 1722 -91 
Q 1428 -91 1123 -41 
Q 819 9 494 109 
L 494 744 
Q 775 591 1075 516 
Q 1375 441 1709 441 
Q 2250 441 2565 725 
Q 2881 1009 2881 1497 
Q 2881 1984 2565 2268 
Q 2250 2553 1709 2553 
Q 1456 2553 1204 2497 
Q 953 2441 691 2322 
L 691 4666 
z
" transform="scale(0.015625)"/>
     </defs>
     <use xlink:href="#DejaVuSans-66"/>
     <use xlink:href="#DejaVuSans-28" x="35.205078"/>
     <use xlink:href="#DejaVuSans-78" x="74.21875"/>
     <use xlink:href="#DejaVuSans-29" x="133.398438"/>
     <use xlink:href="#DejaVuSans-20" x="172.412109"/>
     <use xlink:href="#DejaVuSans-3d" x="204.199219"/>
     <use xlink:href="#DejaVuSans-20" x="287.988281"/>
     <use xlink:href="#DejaVuSans-78" x="319.775391"/>
     <use xlink:href="#DejaVuSans-2a" x="378.955078"/>
     <use xlink:href="#DejaVuSans-65" x="428.955078"/>
     <use xlink:href="#DejaVuSans-78" x="488.728516"/>
     <use xlink:href="#DejaVuSans-70" x="547.908203"/>
     <use xlink:href="#DejaVuSans-28" x="611.384766"/>
     <use xlink:href="#DejaVuSans-78" x="650.398438"/>
     <use xlink:href="#DejaVuSans-29" x="709.578125"/>
     <use xlink:href="#DejaVuSans-2a" x="748.591797"/>
     <use xlink:href="#DejaVuSans-73" x="798.591797"/>
     <use xlink:href="#DejaVuSans-69" x="850.691406"/>
     <use xlink:href="#DejaVuSans-6e" x="878.474609"/>
     <use xlink:href="#DejaVuSans-28" x="941.853516"/>
     <use xlink:href="#DejaVuSans-35" x="980.867188"/>
     <use xlink:href="#DejaVuSans-30" x="1044.490234"/>
     <use xlink:href="#DejaVuSans-2a" x="1108.113281"/>
     <use xlink:href="#DejaVuSans-78" x="1158.113281"/>
     <use xlink:href="#DejaVuSans-29" x="1217.292969"/>
    </g>
   </g>
  </g>
  <g id="axes_2">
   <g id="patch_7">
    <path d="M 302.86946 244.078125 
L 531.142187 244.078125 
L 531.142187 22.318125 
L 302.86946 22.318125 
z
" style="fill: #ffffff"/>
   </g>
   <g id="matplotlib.axis_3">
    <g id="xtick_7">
     <g id="line2d_24">
      <path d="M 313.245493 244.078125 
L 313.245493 22.318125 
" clip-path="url(#pbd5c08484e)" style="fill: none; stroke: #b0b0b0; stroke-width: 0.8; stroke-linecap: square"/>
     </g>
     <g id="line2d_25">
      <g>
       <use xlink:href="#mfc93002f02" x="313.245493" y="244.078125" style="stroke: #000000; stroke-width: 0.8"/>
      </g>
     </g>
     <g id="text_13">
      <!-- 0.0 -->
      <g transform="translate(305.293931 258.676562) scale(0.1 -0.1)">
       <use xlink:href="#DejaVuSans-30"/>
       <use xlink:href="#DejaVuSans-2e" x="63.623047"/>
       <use xlink:href="#DejaVuSans-30" x="95.410156"/>
      </g>
     </g>
    </g>
    <g id="xtick_8">
     <g id="line2d_26">
      <path d="M 354.749626 244.078125 
L 354.749626 22.318125 
" clip-path="url(#pbd5c08484e)" style="fill: none; stroke: #b0b0b0; stroke-width: 0.8; stroke-linecap: square"/>
     </g>
     <g id="line2d_27">
      <g>
       <use xlink:href="#mfc93002f02" x="354.749626" y="244.078125" style="stroke: #000000; stroke-width: 0.8"/>
      </g>
     </g>
     <g id="text_14">
      <!-- 0.2 -->
      <g transform="translate(346.798063 258.676562) scale(0.1 -0.1)">
       <use xlink:href="#DejaVuSans-30"/>
       <use xlink:href="#DejaVuSans-2e" x="63.623047"/>
       <use xlink:href="#DejaVuSans-32" x="95.410156"/>
      </g>
     </g>
    </g>
    <g id="xtick_9">
     <g id="line2d_28">
      <path d="M 396.253758 244.078125 
L 396.253758 22.318125 
" clip-path="url(#pbd5c08484e)" style="fill: none; stroke: #b0b0b0; stroke-width: 0.8; stroke-linecap: square"/>
     </g>
     <g id="line2d_29">
      <g>
       <use xlink:href="#mfc93002f02" x="396.253758" y="244.078125" style="stroke: #000000; stroke-width: 0.8"/>
      </g>
     </g>
     <g id="text_15">
      <!-- 0.4 -->
      <g transform="translate(388.302195 258.676562) scale(0.1 -0.1)">
       <use xlink:href="#DejaVuSans-30"/>
       <use xlink:href="#DejaVuSans-2e" x="63.623047"/>
       <use xlink:href="#DejaVuSans-34" x="95.410156"/>
      </g>
     </g>
    </g>
    <g id="xtick_10">
     <g id="line2d_30">
      <path d="M 437.75789 244.078125 
L 437.75789 22.318125 
" clip-path="url(#pbd5c08484e)" style="fill: none; stroke: #b0b0b0; stroke-width: 0.8; stroke-linecap: square"/>
     </g>
     <g id="line2d_31">
      <g>
       <use xlink:href="#mfc93002f02" x="437.75789" y="244.078125" style="stroke: #000000; stroke-width: 0.8"/>
      </g>
     </g>
     <g id="text_16">
      <!-- 0.6 -->
      <g transform="translate(429.806327 258.676562) scale(0.1 -0.1)">
       <use xlink:href="#DejaVuSans-30"/>
       <use xlink:href="#DejaVuSans-2e" x="63.623047"/>
       <use xlink:href="#DejaVuSans-36" x="95.410156"/>
      </g>
     </g>
    </g>
    <g id="xtick_11">
     <g id="line2d_32">
      <path d="M 479.262022 244.078125 
L 479.262022 22.318125 
" clip-path="url(#pbd5c08484e)" style="fill: none; stroke: #b0b0b0; stroke-width: 0.8; stroke-linecap: square"/>
     </g>
     <g id="line2d_33">
      <g>
       <use xlink:href="#mfc93002f02" x="479.262022" y="244.078125" style="stroke: #000000; stroke-width: 0.8"/>
      </g>
     </g>
     <g id="text_17">
      <!-- 0.8 -->
      <g transform="translate(471.31046 258.676562) scale(0.1 -0.1)">
       <use xlink:href="#DejaVuSans-30"/>
       <use xlink:href="#DejaVuSans-2e" x="63.623047"/>
       <use xlink:href="#DejaVuSans-38" x="95.410156"/>
      </g>
     </g>
    </g>
    <g id="xtick_12">
     <g id="line2d_34">
      <path d="M 520.766154 244.078125 
L 520.766154 22.318125 
" clip-path="url(#pbd5c08484e)" style="fill: none; stroke: #b0b0b0; stroke-width: 0.8; stroke-linecap: square"/>
     </g>
     <g id="line2d_35">
      <g>
       <use xlink:href="#mfc93002f02" x="520.766154" y="244.078125" style="stroke: #000000; stroke-width: 0.8"/>
      </g>
     </g>
     <g id="text_18">
      <!-- 1.0 -->
      <g transform="translate(512.814592 258.676562) scale(0.1 -0.1)">
       <use xlink:href="#DejaVuSans-31"/>
       <use xlink:href="#DejaVuSans-2e" x="63.623047"/>
       <use xlink:href="#DejaVuSans-30" x="95.410156"/>
      </g>
     </g>
    </g>
   </g>
   <g id="matplotlib.axis_4">
    <g id="ytick_6">
     <g id="line2d_36">
      <path d="M 302.86946 216.898178 
L 531.142187 216.898178 
" clip-path="url(#pbd5c08484e)" style="fill: none; stroke: #b0b0b0; stroke-width: 0.8; stroke-linecap: square"/>
     </g>
     <g id="line2d_37">
      <g>
       <use xlink:href="#m97a52374a6" x="302.86946" y="216.898178" style="stroke: #000000; stroke-width: 0.8"/>
      </g>
     </g>
     <g id="text_19">
      <!-- −100 -->
      <g transform="translate(268.402273 220.697397) scale(0.1 -0.1)">
       <use xlink:href="#DejaVuSans-2212"/>
       <use xlink:href="#DejaVuSans-31" x="83.789062"/>
       <use xlink:href="#DejaVuSans-30" x="147.412109"/>
       <use xlink:href="#DejaVuSans-30" x="211.035156"/>
      </g>
     </g>
    </g>
    <g id="ytick_7">
     <g id="line2d_38">
      <path d="M 302.86946 176.741644 
L 531.142187 176.741644 
" clip-path="url(#pbd5c08484e)" style="fill: none; stroke: #b0b0b0; stroke-width: 0.8; stroke-linecap: square"/>
     </g>
     <g id="line2d_39">
      <g>
       <use xlink:href="#m97a52374a6" x="302.86946" y="176.741644" style="stroke: #000000; stroke-width: 0.8"/>
      </g>
     </g>
     <g id="text_20">
      <!-- −50 -->
      <g transform="translate(274.764773 180.540862) scale(0.1 -0.1)">
       <use xlink:href="#DejaVuSans-2212"/>
       <use xlink:href="#DejaVuSans-35" x="83.789062"/>
       <use xlink:href="#DejaVuSans-30" x="147.412109"/>
      </g>
     </g>
    </g>
    <g id="ytick_8">
     <g id="line2d_40">
      <path d="M 302.86946 136.585109 
L 531.142187 136.585109 
" clip-path="url(#pbd5c08484e)" style="fill: none; stroke: #b0b0b0; stroke-width: 0.8; stroke-linecap: square"/>
     </g>
     <g id="line2d_41">
      <g>
       <use xlink:href="#m97a52374a6" x="302.86946" y="136.585109" style="stroke: #000000; stroke-width: 0.8"/>
      </g>
     </g>
     <g id="text_21">
      <!-- 0 -->
      <g transform="translate(289.50696 140.384327) scale(0.1 -0.1)">
       <use xlink:href="#DejaVuSans-30"/>
      </g>
     </g>
    </g>
    <g id="ytick_9">
     <g id="line2d_42">
      <path d="M 302.86946 96.428574 
L 531.142187 96.428574 
" clip-path="url(#pbd5c08484e)" style="fill: none; stroke: #b0b0b0; stroke-width: 0.8; stroke-linecap: square"/>
     </g>
     <g id="line2d_43">
      <g>
       <use xlink:href="#m97a52374a6" x="302.86946" y="96.428574" style="stroke: #000000; stroke-width: 0.8"/>
      </g>
     </g>
     <g id="text_22">
      <!-- 50 -->
      <g transform="translate(283.14446 100.227793) scale(0.1 -0.1)">
       <use xlink:href="#DejaVuSans-35"/>
       <use xlink:href="#DejaVuSans-30" x="63.623047"/>
      </g>
     </g>
    </g>
    <g id="ytick_10">
     <g id="line2d_44">
      <path d="M 302.86946 56.272039 
L 531.142187 56.272039 
" clip-path="url(#pbd5c08484e)" style="fill: none; stroke: #b0b0b0; stroke-width: 0.8; stroke-linecap: square"/>
     </g>
     <g id="line2d_45">
      <g>
       <use xlink:href="#m97a52374a6" x="302.86946" y="56.272039" style="stroke: #000000; stroke-width: 0.8"/>
      </g>
     </g>
     <g id="text_23">
      <!-- 100 -->
      <g transform="translate(276.78196 60.071258) scale(0.1 -0.1)">
       <use xlink:href="#DejaVuSans-31"/>
       <use xlink:href="#DejaVuSans-30" x="63.623047"/>
       <use xlink:href="#DejaVuSans-30" x="127.246094"/>
      </g>
     </g>
    </g>
   </g>
   <g id="line2d_46">
    <path d="M 313.245493 136.585109 
L 315.331128 135.833201 
L 316.373945 135.570599 
L 317.416763 135.437975 
L 318.45958 135.462196 
L 319.502398 135.655261 
L 320.545215 136.01258 
L 322.63085 137.118278 
L 325.759302 139.022435 
L 326.802119 139.47737 
L 327.844937 139.743025 
L 328.887754 139.774256 
L 329.930572 139.542378 
L 330.973389 139.038704 
L 332.016206 138.276631 
L 333.059024 137.292064 
L 335.144659 134.901593 
L 337.230293 132.509743 
L 338.273111 131.549516 
L 339.315928 130.866852 
L 340.358745 130.535853 
L 341.401563 130.609608 
L 342.44438 131.114822 
L 343.487198 132.048132 
L 344.530015 133.374455 
L 345.572832 135.027603 
L 350.786919 144.249556 
L 351.829737 145.35638 
L 352.872554 145.938513 
L 353.915372 145.923404 
L 354.958189 145.275962 
L 356.001006 144.00305 
L 357.043824 142.155248 
L 358.086641 139.825621 
L 360.172276 134.277108 
L 362.257911 128.720869 
L 363.300728 126.417216 
L 364.343546 124.667831 
L 365.386363 123.618221 
L 366.42918 123.373684 
L 367.471998 123.990268 
L 368.514815 125.468684 
L 369.557632 127.751737 
L 370.60045 130.72558 
L 372.686085 138.041696 
L 374.771719 145.658401 
L 375.814537 148.950497 
L 376.857354 151.577898 
L 377.900172 153.338728 
L 378.942989 154.080113 
L 379.985806 153.710367 
L 381.028624 152.207572 
L 382.071441 149.623815 
L 383.114259 146.084658 
L 384.157076 141.783679 
L 388.328346 122.531228 
L 389.371163 118.779657 
L 390.41398 116.041113 
L 391.456798 114.532106 
L 392.499615 114.396559 
L 393.542433 115.693732 
L 394.58525 118.391302 
L 395.628067 122.364245 
L 396.670885 127.399791 
L 398.756519 139.439659 
L 400.842154 151.595987 
L 401.884972 156.720741 
L 402.927789 160.720001 
L 403.970606 163.296735 
L 405.013424 164.236546 
L 406.056241 163.424361 
L 407.099059 160.855149 
L 408.141876 156.637802 
L 409.184693 150.991682 
L 411.270328 136.771473 
L 413.355963 121.586487 
L 414.39878 114.845987 
L 415.441598 109.294414 
L 416.484415 105.326516 
L 417.527233 103.246626 
L 418.57005 103.246202 
L 419.612867 105.388037 
L 420.655685 109.598367 
L 421.698502 115.667614 
L 422.74132 123.259969 
L 424.826954 141.155457 
L 426.912589 158.936135 
L 427.955406 166.330615 
L 428.998224 172.028602 
L 430.041041 175.615645 
L 431.083859 176.801627 
L 432.126676 175.442968 
L 433.169493 171.555953 
L 434.212311 165.320089 
L 435.255128 157.071005 
L 437.340763 136.542573 
L 439.426398 114.894165 
L 440.469215 105.37847 
L 441.512033 97.60574 
L 442.55485 92.120825 
L 443.597667 89.335979 
L 444.640485 89.500856 
L 445.683302 92.682199 
L 446.72612 98.7548 
L 447.768937 107.40459 
L 448.811754 118.143972 
L 450.897389 143.245058 
L 452.983024 167.944616 
L 454.025841 178.130768 
L 455.068659 185.91816 
L 456.111476 190.748342 
L 457.154293 192.238522 
L 458.197111 190.210482 
L 459.239928 184.707057 
L 460.282746 175.994803 
L 461.325563 164.552361 
L 463.411198 136.286033 
L 465.496833 106.711119 
L 466.53965 93.792437 
L 467.582467 83.296047 
L 468.625285 75.950456 
L 469.668102 72.299812 
L 470.71092 72.664697 
L 471.753737 77.11634 
L 472.796554 85.466217 
L 473.839372 97.272068 
L 474.882189 111.860327 
L 479.053459 178.932763 
L 480.096276 192.532402 
L 481.139094 202.875027 
L 482.181911 209.226543 
L 483.224728 211.091268 
L 484.267546 208.249014 
L 485.310363 200.775346 
L 486.35318 189.043365 
L 487.395998 173.706487 
L 489.481633 136.003508 
L 491.567267 96.762533 
L 492.610085 79.694001 
L 493.652902 65.875755 
L 494.69572 56.259866 
L 495.738537 51.550901 
L 496.781354 52.155552 
L 497.824172 58.150216 
L 498.866989 69.269005 
L 499.909807 84.913375 
L 500.952624 104.183225 
L 505.123894 192.264852 
L 506.166711 210.017146 
L 507.209528 223.469234 
L 508.252346 231.673763 
L 509.295163 233.998125 
L 510.337981 230.171392 
L 511.380798 220.309137 
L 512.423615 204.914083 
L 513.466433 184.852047 
L 515.552067 135.698254 
L 517.637702 84.727324 
L 518.68052 62.622286 
L 519.723337 44.771551 
L 520.766154 32.398125 
L 520.766154 32.398125 
" clip-path="url(#pbd5c08484e)" style="fill: none; stroke: #1f77b4; stroke-width: 1.5; stroke-linecap: square"/>
   </g>
   <g id="patch_8">
    <path d="M 302.86946 244.078125 
L 302.86946 22.318125 
" style="fill: none; stroke: #000000; stroke-width: 0.8; stroke-linejoin: miter; stroke-linecap: square"/>
   </g>
   <g id="patch_9">
    <path d="M 531.142187 244.078125 
L 531.142187 22.318125 
" style="fill: none; stroke: #000000; stroke-width: 0.8; stroke-linejoin: miter; stroke-linecap: square"/>
   </g>
   <g id="patch_10">
    <path d="M 302.86946 244.078125 
L 531.142187 244.078125 
" style="fill: none; stroke: #000000; stroke-width: 0.8; stroke-linejoin: miter; stroke-linecap: square"/>
   </g>
   <g id="patch_11">
    <path d="M 302.86946 22.318125 
L 531.142187 22.318125 
" style="fill: none; stroke: #000000; stroke-width: 0.8; stroke-linejoin: miter; stroke-linecap: square"/>
   </g>
   <g id="text_24">
    <!-- Derivative of f(x) -->
    <g transform="translate(366.127699 16.318125) scale(0.12 -0.12)">
     <defs>
      <path id="DejaVuSans-44" d="M 1259 4147 
L 1259 519 
L 2022 519 
Q 2988 519 3436 956 
Q 3884 1394 3884 2338 
Q 3884 3275 3436 3711 
Q 2988 4147 2022 4147 
L 1259 4147 
z
M 628 4666 
L 1925 4666 
Q 3281 4666 3915 4102 
Q 4550 3538 4550 2338 
Q 4550 1131 3912 565 
Q 3275 0 1925 0 
L 628 0 
L 628 4666 
z
" transform="scale(0.015625)"/>
      <path id="DejaVuSans-72" d="M 2631 2963 
Q 2534 3019 2420 3045 
Q 2306 3072 2169 3072 
Q 1681 3072 1420 2755 
Q 1159 2438 1159 1844 
L 1159 0 
L 581 0 
L 581 3500 
L 1159 3500 
L 1159 2956 
Q 1341 3275 1631 3429 
Q 1922 3584 2338 3584 
Q 2397 3584 2469 3576 
Q 2541 3569 2628 3553 
L 2631 2963 
z
" transform="scale(0.015625)"/>
      <path id="DejaVuSans-76" d="M 191 3500 
L 800 3500 
L 1894 563 
L 2988 3500 
L 3597 3500 
L 2284 0 
L 1503 0 
L 191 3500 
z
" transform="scale(0.015625)"/>
      <path id="DejaVuSans-61" d="M 2194 1759 
Q 1497 1759 1228 1600 
Q 959 1441 959 1056 
Q 959 750 1161 570 
Q 1363 391 1709 391 
Q 2188 391 2477 730 
Q 2766 1069 2766 1631 
L 2766 1759 
L 2194 1759 
z
M 3341 1997 
L 3341 0 
L 2766 0 
L 2766 531 
Q 2569 213 2275 61 
Q 1981 -91 1556 -91 
Q 1019 -91 701 211 
Q 384 513 384 1019 
Q 384 1609 779 1909 
Q 1175 2209 1959 2209 
L 2766 2209 
L 2766 2266 
Q 2766 2663 2505 2880 
Q 2244 3097 1772 3097 
Q 1472 3097 1187 3025 
Q 903 2953 641 2809 
L 641 3341 
Q 956 3463 1253 3523 
Q 1550 3584 1831 3584 
Q 2591 3584 2966 3190 
Q 3341 2797 3341 1997 
z
" transform="scale(0.015625)"/>
      <path id="DejaVuSans-74" d="M 1172 4494 
L 1172 3500 
L 2356 3500 
L 2356 3053 
L 1172 3053 
L 1172 1153 
Q 1172 725 1289 603 
Q 1406 481 1766 481 
L 2356 481 
L 2356 0 
L 1766 0 
Q 1100 0 847 248 
Q 594 497 594 1153 
L 594 3053 
L 172 3053 
L 172 3500 
L 594 3500 
L 594 4494 
L 1172 4494 
z
" transform="scale(0.015625)"/>
      <path id="DejaVuSans-6f" d="M 1959 3097 
Q 1497 3097 1228 2736 
Q 959 2375 959 1747 
Q 959 1119 1226 758 
Q 1494 397 1959 397 
Q 2419 397 2687 759 
Q 2956 1122 2956 1747 
Q 2956 2369 2687 2733 
Q 2419 3097 1959 3097 
z
M 1959 3584 
Q 2709 3584 3137 3096 
Q 3566 2609 3566 1747 
Q 3566 888 3137 398 
Q 2709 -91 1959 -91 
Q 1206 -91 779 398 
Q 353 888 353 1747 
Q 353 2609 779 3096 
Q 1206 3584 1959 3584 
z
" transform="scale(0.015625)"/>
     </defs>
     <use xlink:href="#DejaVuSans-44"/>
     <use xlink:href="#DejaVuSans-65" x="77.001953"/>
     <use xlink:href="#DejaVuSans-72" x="138.525391"/>
     <use xlink:href="#DejaVuSans-69" x="179.638672"/>
     <use xlink:href="#DejaVuSans-76" x="207.421875"/>
     <use xlink:href="#DejaVuSans-61" x="266.601562"/>
     <use xlink:href="#DejaVuSans-74" x="327.880859"/>
     <use xlink:href="#DejaVuSans-69" x="367.089844"/>
     <use xlink:href="#DejaVuSans-76" x="394.873047"/>
     <use xlink:href="#DejaVuSans-65" x="454.052734"/>
     <use xlink:href="#DejaVuSans-20" x="515.576172"/>
     <use xlink:href="#DejaVuSans-6f" x="547.363281"/>
     <use xlink:href="#DejaVuSans-66" x="608.544922"/>
     <use xlink:href="#DejaVuSans-20" x="643.75"/>
     <use xlink:href="#DejaVuSans-66" x="675.537109"/>
     <use xlink:href="#DejaVuSans-28" x="710.742188"/>
     <use xlink:href="#DejaVuSans-78" x="749.755859"/>
     <use xlink:href="#DejaVuSans-29" x="808.935547"/>
    </g>
   </g>
  </g>
 </g>
 <defs>
  <clipPath id="p590e47b9a9">
   <rect x="28.942188" y="22.318125" width="228.272727" height="221.76"/>
  </clipPath>
  <clipPath id="pbd5c08484e">
   <rect x="302.86946" y="22.318125" width="228.272727" height="221.76"/>
  </clipPath>
 </defs>
</svg>