<?xml version="1.0" encoding="utf-8" standalone="no"?>
<!DOCTYPE svg PUBLIC "-//W3C//DTD SVG 1.1//EN"
  "http://www.w3.org/Graphics/SVG/1.1/DTD/svg11.dtd">
<svg xmlns:xlink="http://www.w3.org/1999/xlink" width="416.480937pt" height="325.986375pt" viewBox="0 0 416.480937 325.986375" xmlns="http://www.w3.org/2000/svg" version="1.1">
 <metadata>
  <rdf:RDF xmlns:dc="http://purl.org/dc/elements/1.1/" xmlns:cc="http://creativecommons.org/ns#" xmlns:rdf="http://www.w3.org/1999/02/22-rdf-syntax-ns#">
   <cc:Work>
    <dc:type rdf:resource="http://purl.org/dc/dcmitype/StillImage"/>
    <dc:date>2024-12-13T09:21:03.749773</dc:date>
    <dc:format>image/svg+xml</dc:format>
    <dc:creator>
     <cc:Agent>
      <dc:title>Matplotlib v3.9.2, https://matplotlib.org/</dc:title>
     </cc:Agent>
    </dc:creator>
   </cc:Work>
  </rdf:RDF>
 </metadata>
 <defs>
  <style type="text/css">*{stroke-linejoin: round; stroke-linecap: butt}</style>
 </defs>
 <g id="figure_1">
  <g id="patch_1">
   <path d="M 0 325.986375 
L 416.480937 325.986375 
L 416.480937 0 
L 0 0 
z
" style="fill: #ffffff"/>
  </g>
  <g id="axes_1">
   <g id="patch_2">
    <path d="M 52.160938 288.430125 
L 409.280938 288.430125 
L 409.280938 22.318125 
L 52.160938 22.318125 
z
" style="fill: #ffffff"/>
   </g>
   <g id="matplotlib.axis_1">
    <g id="xtick_1">
     <g id="line2d_1">
      <path d="M 68.393665 288.430125 
L 68.393665 22.318125 
" clip-path="url(#p2a8bd75cf6)" style="fill: none; stroke: #b0b0b0; stroke-width: 0.8; stroke-linecap: square"/>
     </g>
     <g id="line2d_2">
      <defs>
       <path id="m90d378931f" d="M 0 0 
L 0 3.5 
" style="stroke: #000000; stroke-width: 0.8"/>
      </defs>
      <g>
       <use xlink:href="#m90d378931f" x="68.393665" y="288.430125" style="stroke: #000000; stroke-width: 0.8"/>
      </g>
     </g>
     <g id="text_1">
      <!-- 0.0 -->
      <g transform="translate(60.442102 303.028562) scale(0.1 -0.1)">
       <defs>
        <path id="DejaVuSans-30" d="M 2034 4250 
Q 1547 4250 1301 3770 
Q 1056 3291 1056 2328 
Q 1056 1369 1301 889 
Q 1547 409 2034 409 
Q 2525 409 2770 889 
Q 3016 1369 3016 2328 
Q 3016 3291 2770 3770 
Q 2525 4250 2034 4250 
z
M 2034 4750 
Q 2819 4750 3233 4129 
Q 3647 3509 3647 2328 
Q 3647 1150 3233 529 
Q 2819 -91 2034 -91 
Q 1250 -91 836 529 
Q 422 1150 422 2328 
Q 422 3509 836 4129 
Q 1250 4750 2034 4750 
z
" transform="scale(0.015625)"/>
        <path id="DejaVuSans-2e" d="M 684 794 
L 1344 794 
L 1344 0 
L 684 0 
L 684 794 
z
" transform="scale(0.015625)"/>
       </defs>
       <use xlink:href="#DejaVuSans-30"/>
       <use xlink:href="#DejaVuSans-2e" x="63.623047"/>
       <use xlink:href="#DejaVuSans-30" x="95.410156"/>
      </g>
     </g>
    </g>
    <g id="xtick_2">
     <g id="line2d_3">
      <path d="M 133.324574 288.430125 
L 133.324574 22.318125 
" clip-path="url(#p2a8bd75cf6)" style="fill: none; stroke: #b0b0b0; stroke-width: 0.8; stroke-linecap: square"/>
     </g>
     <g id="line2d_4">
      <g>
       <use xlink:href="#m90d378931f" x="133.324574" y="288.430125" style="stroke: #000000; stroke-width: 0.8"/>
      </g>
     </g>
     <g id="text_2">
      <!-- 0.2 -->
      <g transform="translate(125.373011 303.028562) scale(0.1 -0.1)">
       <defs>
        <path id="DejaVuSans-32" d="M 1228 531 
L 3431 531 
L 3431 0 
L 469 0 
L 469 531 
Q 828 903 1448 1529 
Q 2069 2156 2228 2338 
Q 2531 2678 2651 2914 
Q 2772 3150 2772 3378 
Q 2772 3750 2511 3984 
Q 2250 4219 1831 4219 
Q 1534 4219 1204 4116 
Q 875 4013 500 3803 
L 500 4441 
Q 881 4594 1212 4672 
Q 1544 4750 1819 4750 
Q 2544 4750 2975 4387 
Q 3406 4025 3406 3419 
Q 3406 3131 3298 2873 
Q 3191 2616 2906 2266 
Q 2828 2175 2409 1742 
Q 1991 1309 1228 531 
z
" transform="scale(0.015625)"/>
       </defs>
       <use xlink:href="#DejaVuSans-30"/>
       <use xlink:href="#DejaVuSans-2e" x="63.623047"/>
       <use xlink:href="#DejaVuSans-32" x="95.410156"/>
      </g>
     </g>
    </g>
    <g id="xtick_3">
     <g id="line2d_5">
      <path d="M 198.255483 288.430125 
L 198.255483 22.318125 
" clip-path="url(#p2a8bd75cf6)" style="fill: none; stroke: #b0b0b0; stroke-width: 0.8; stroke-linecap: square"/>
     </g>
     <g id="line2d_6">
      <g>
       <use xlink:href="#m90d378931f" x="198.255483" y="288.430125" style="stroke: #000000; stroke-width: 0.8"/>
      </g>
     </g>
     <g id="text_3">
      <!-- 0.4 -->
      <g transform="translate(190.30392 303.028562) scale(0.1 -0.1)">
       <defs>
        <path id="DejaVuSans-34" d="M 2419 4116 
L 825 1625 
L 2419 1625 
L 2419 4116 
z
M 2253 4666 
L 3047 4666 
L 3047 1625 
L 3713 1625 
L 3713 1100 
L 3047 1100 
L 3047 0 
L 2419 0 
L 2419 1100 
L 313 1100 
L 313 1709 
L 2253 4666 
z
" transform="scale(0.015625)"/>
       </defs>
       <use xlink:href="#DejaVuSans-30"/>
       <use xlink:href="#DejaVuSans-2e" x="63.623047"/>
       <use xlink:href="#DejaVuSans-34" x="95.410156"/>
      </g>
     </g>
    </g>
    <g id="xtick_4">
     <g id="line2d_7">
      <path d="M 263.186392 288.430125 
L 263.186392 22.318125 
" clip-path="url(#p2a8bd75cf6)" style="fill: none; stroke: #b0b0b0; stroke-width: 0.8; stroke-linecap: square"/>
     </g>
     <g id="line2d_8">
      <g>
       <use xlink:href="#m90d378931f" x="263.186392" y="288.430125" style="stroke: #000000; stroke-width: 0.8"/>
      </g>
     </g>
     <g id="text_4">
      <!-- 0.6 -->
      <g transform="translate(255.23483 303.028562) scale(0.1 -0.1)">
       <defs>
        <path id="DejaVuSans-36" d="M 2113 2584 
Q 1688 2584 1439 2293 
Q 1191 2003 1191 1497 
Q 1191 994 1439 701 
Q 1688 409 2113 409 
Q 2538 409 2786 701 
Q 3034 994 3034 1497 
Q 3034 2003 2786 2293 
Q 2538 2584 2113 2584 
z
M 3366 4563 
L 3366 3988 
Q 3128 4100 2886 4159 
Q 2644 4219 2406 4219 
Q 1781 4219 1451 3797 
Q 1122 3375 1075 2522 
Q 1259 2794 1537 2939 
Q 1816 3084 2150 3084 
Q 2853 3084 3261 2657 
Q 3669 2231 3669 1497 
Q 3669 778 3244 343 
Q 2819 -91 2113 -91 
Q 1303 -91 875 529 
Q 447 1150 447 2328 
Q 447 3434 972 4092 
Q 1497 4750 2381 4750 
Q 2619 4750 2861 4703 
Q 3103 4656 3366 4563 
z
" transform="scale(0.015625)"/>
       </defs>
       <use xlink:href="#DejaVuSans-30"/>
       <use xlink:href="#DejaVuSans-2e" x="63.623047"/>
       <use xlink:href="#DejaVuSans-36" x="95.410156"/>
      </g>
     </g>
    </g>
    <g id="xtick_5">
     <g id="line2d_9">
      <path d="M 328.117301 288.430125 
L 328.117301 22.318125 
" clip-path="url(#p2a8bd75cf6)" style="fill: none; stroke: #b0b0b0; stroke-width: 0.8; stroke-linecap: square"/>
     </g>
     <g id="line2d_10">
      <g>
       <use xlink:href="#m90d378931f" x="328.117301" y="288.430125" style="stroke: #000000; stroke-width: 0.8"/>
      </g>
     </g>
     <g id="text_5">
      <!-- 0.8 -->
      <g transform="translate(320.165739 303.028562) scale(0.1 -0.1)">
       <defs>
        <path id="DejaVuSans-38" d="M 2034 2216 
Q 1584 2216 1326 1975 
Q 1069 1734 1069 1313 
Q 1069 891 1326 650 
Q 1584 409 2034 409 
Q 2484 409 2743 651 
Q 3003 894 3003 1313 
Q 3003 1734 2745 1975 
Q 2488 2216 2034 2216 
z
M 1403 2484 
Q 997 2584 770 2862 
Q 544 3141 544 3541 
Q 544 4100 942 4425 
Q 1341 4750 2034 4750 
Q 2731 4750 3128 4425 
Q 3525 4100 3525 3541 
Q 3525 3141 3298 2862 
Q 3072 2584 2669 2484 
Q 3125 2378 3379 2068 
Q 3634 1759 3634 1313 
Q 3634 634 3220 271 
Q 2806 -91 2034 -91 
Q 1263 -91 848 271 
Q 434 634 434 1313 
Q 434 1759 690 2068 
Q 947 2378 1403 2484 
z
M 1172 3481 
Q 1172 3119 1398 2916 
Q 1625 2713 2034 2713 
Q 2441 2713 2670 2916 
Q 2900 3119 2900 3481 
Q 2900 3844 2670 4047 
Q 2441 4250 2034 4250 
Q 1625 4250 1398 4047 
Q 1172 3844 1172 3481 
z
" transform="scale(0.015625)"/>
       </defs>
       <use xlink:href="#DejaVuSans-30"/>
       <use xlink:href="#DejaVuSans-2e" x="63.623047"/>
       <use xlink:href="#DejaVuSans-38" x="95.410156"/>
      </g>
     </g>
    </g>
    <g id="xtick_6">
     <g id="line2d_11">
      <path d="M 393.04821 288.430125 
L 393.04821 22.318125 
" clip-path="url(#p2a8bd75cf6)" style="fill: none; stroke: #b0b0b0; stroke-width: 0.8; stroke-linecap: square"/>
     </g>
     <g id="line2d_12">
      <g>
       <use xlink:href="#m90d378931f" x="393.04821" y="288.430125" style="stroke: #000000; stroke-width: 0.8"/>
      </g>
     </g>
     <g id="text_6">
      <!-- 1.0 -->
      <g transform="translate(385.096648 303.028562) scale(0.1 -0.1)">
       <defs>
        <path id="DejaVuSans-31" d="M 794 531 
L 1825 531 
L 1825 4091 
L 703 3866 
L 703 4441 
L 1819 4666 
L 2450 4666 
L 2450 531 
L 3481 531 
L 3481 0 
L 794 0 
L 794 531 
z
" transform="scale(0.015625)"/>
       </defs>
       <use xlink:href="#DejaVuSans-31"/>
       <use xlink:href="#DejaVuSans-2e" x="63.623047"/>
       <use xlink:href="#DejaVuSans-30" x="95.410156"/>
      </g>
     </g>
    </g>
    <g id="text_7">
     <!-- x -->
     <g transform="translate(227.761563 316.706687) scale(0.1 -0.1)">
      <defs>
       <path id="DejaVuSans-78" d="M 3513 3500 
L 2247 1797 
L 3578 0 
L 2900 0 
L 1881 1375 
L 863 0 
L 184 0 
L 1544 1831 
L 300 3500 
L 978 3500 
L 1906 2253 
L 2834 3500 
L 3513 3500 
z
" transform="scale(0.015625)"/>
      </defs>
      <use xlink:href="#DejaVuSans-78"/>
     </g>
    </g>
   </g>
   <g id="matplotlib.axis_2">
    <g id="ytick_1">
     <g id="line2d_13">
      <path d="M 52.160938 275.401369 
L 409.280938 275.401369 
" clip-path="url(#p2a8bd75cf6)" style="fill: none; stroke: #b0b0b0; stroke-width: 0.8; stroke-linecap: square"/>
     </g>
     <g id="line2d_14">
      <defs>
       <path id="m67c64abd4b" d="M 0 0 
L -3.5 0 
" style="stroke: #000000; stroke-width: 0.8"/>
      </defs>
      <g>
       <use xlink:href="#m67c64abd4b" x="52.160938" y="275.401369" style="stroke: #000000; stroke-width: 0.8"/>
      </g>
     </g>
     <g id="text_8">
      <!-- −0.8 -->
      <g transform="translate(20.878125 279.200588) scale(0.1 -0.1)">
       <defs>
        <path id="DejaVuSans-2212" d="M 678 2272 
L 4684 2272 
L 4684 1741 
L 678 1741 
L 678 2272 
z
" transform="scale(0.015625)"/>
       </defs>
       <use xlink:href="#DejaVuSans-2212"/>
       <use xlink:href="#DejaVuSans-30" x="83.789062"/>
       <use xlink:href="#DejaVuSans-2e" x="147.412109"/>
       <use xlink:href="#DejaVuSans-38" x="179.199219"/>
      </g>
     </g>
    </g>
    <g id="ytick_2">
     <g id="line2d_15">
      <path d="M 52.160938 243.604298 
L 409.280938 243.604298 
" clip-path="url(#p2a8bd75cf6)" style="fill: none; stroke: #b0b0b0; stroke-width: 0.8; stroke-linecap: square"/>
     </g>
     <g id="line2d_16">
      <g>
       <use xlink:href="#m67c64abd4b" x="52.160938" y="243.604298" style="stroke: #000000; stroke-width: 0.8"/>
      </g>
     </g>
     <g id="text_9">
      <!-- −0.6 -->
      <g transform="translate(20.878125 247.403517) scale(0.1 -0.1)">
       <use xlink:href="#DejaVuSans-2212"/>
       <use xlink:href="#DejaVuSans-30" x="83.789062"/>
       <use xlink:href="#DejaVuSans-2e" x="147.412109"/>
       <use xlink:href="#DejaVuSans-36" x="179.199219"/>
      </g>
     </g>
    </g>
    <g id="ytick_3">
     <g id="line2d_17">
      <path d="M 52.160938 211.807227 
L 409.280938 211.807227 
" clip-path="url(#p2a8bd75cf6)" style="fill: none; stroke: #b0b0b0; stroke-width: 0.8; stroke-linecap: square"/>
     </g>
     <g id="line2d_18">
      <g>
       <use xlink:href="#m67c64abd4b" x="52.160938" y="211.807227" style="stroke: #000000; stroke-width: 0.8"/>
      </g>
     </g>
     <g id="text_10">
      <!-- −0.4 -->
      <g transform="translate(20.878125 215.606445) scale(0.1 -0.1)">
       <use xlink:href="#DejaVuSans-2212"/>
       <use xlink:href="#DejaVuSans-30" x="83.789062"/>
       <use xlink:href="#DejaVuSans-2e" x="147.412109"/>
       <use xlink:href="#DejaVuSans-34" x="179.199219"/>
      </g>
     </g>
    </g>
    <g id="ytick_4">
     <g id="line2d_19">
      <path d="M 52.160938 180.010155 
L 409.280938 180.010155 
" clip-path="url(#p2a8bd75cf6)" style="fill: none; stroke: #b0b0b0; stroke-width: 0.8; stroke-linecap: square"/>
     </g>
     <g id="line2d_20">
      <g>
       <use xlink:href="#m67c64abd4b" x="52.160938" y="180.010155" style="stroke: #000000; stroke-width: 0.8"/>
      </g>
     </g>
     <g id="text_11">
      <!-- −0.2 -->
      <g transform="translate(20.878125 183.809374) scale(0.1 -0.1)">
       <use xlink:href="#DejaVuSans-2212"/>
       <use xlink:href="#DejaVuSans-30" x="83.789062"/>
       <use xlink:href="#DejaVuSans-2e" x="147.412109"/>
       <use xlink:href="#DejaVuSans-32" x="179.199219"/>
      </g>
     </g>
    </g>
    <g id="ytick_5">
     <g id="line2d_21">
      <path d="M 52.160938 148.213084 
L 409.280938 148.213084 
" clip-path="url(#p2a8bd75cf6)" style="fill: none; stroke: #b0b0b0; stroke-width: 0.8; stroke-linecap: square"/>
     </g>
     <g id="line2d_22">
      <g>
       <use xlink:href="#m67c64abd4b" x="52.160938" y="148.213084" style="stroke: #000000; stroke-width: 0.8"/>
      </g>
     </g>
     <g id="text_12">
      <!-- 0.0 -->
      <g transform="translate(29.257812 152.012303) scale(0.1 -0.1)">
       <use xlink:href="#DejaVuSans-30"/>
       <use xlink:href="#DejaVuSans-2e" x="63.623047"/>
       <use xlink:href="#DejaVuSans-30" x="95.410156"/>
      </g>
     </g>
    </g>
    <g id="ytick_6">
     <g id="line2d_23">
      <path d="M 52.160938 116.416013 
L 409.280938 116.416013 
" clip-path="url(#p2a8bd75cf6)" style="fill: none; stroke: #b0b0b0; stroke-width: 0.8; stroke-linecap: square"/>
     </g>
     <g id="line2d_24">
      <g>
       <use xlink:href="#m67c64abd4b" x="52.160938" y="116.416013" style="stroke: #000000; stroke-width: 0.8"/>
      </g>
     </g>
     <g id="text_13">
      <!-- 0.2 -->
      <g transform="translate(29.257812 120.215231) scale(0.1 -0.1)">
       <use xlink:href="#DejaVuSans-30"/>
       <use xlink:href="#DejaVuSans-2e" x="63.623047"/>
       <use xlink:href="#DejaVuSans-32" x="95.410156"/>
      </g>
     </g>
    </g>
    <g id="ytick_7">
     <g id="line2d_25">
      <path d="M 52.160938 84.618941 
L 409.280938 84.618941 
" clip-path="url(#p2a8bd75cf6)" style="fill: none; stroke: #b0b0b0; stroke-width: 0.8; stroke-linecap: square"/>
     </g>
     <g id="line2d_26">
      <g>
       <use xlink:href="#m67c64abd4b" x="52.160938" y="84.618941" style="stroke: #000000; stroke-width: 0.8"/>
      </g>
     </g>
     <g id="text_14">
      <!-- 0.4 -->
      <g transform="translate(29.257812 88.41816) scale(0.1 -0.1)">
       <use xlink:href="#DejaVuSans-30"/>
       <use xlink:href="#DejaVuSans-2e" x="63.623047"/>
       <use xlink:href="#DejaVuSans-34" x="95.410156"/>
      </g>
     </g>
    </g>
    <g id="ytick_8">
     <g id="line2d_27">
      <path d="M 52.160938 52.82187 
L 409.280938 52.82187 
" clip-path="url(#p2a8bd75cf6)" style="fill: none; stroke: #b0b0b0; stroke-width: 0.8; stroke-linecap: square"/>
     </g>
     <g id="line2d_28">
      <g>
       <use xlink:href="#m67c64abd4b" x="52.160938" y="52.82187" style="stroke: #000000; stroke-width: 0.8"/>
      </g>
     </g>
     <g id="text_15">
      <!-- 0.6 -->
      <g transform="translate(29.257812 56.621089) scale(0.1 -0.1)">
       <use xlink:href="#DejaVuSans-30"/>
       <use xlink:href="#DejaVuSans-2e" x="63.623047"/>
       <use xlink:href="#DejaVuSans-36" x="95.410156"/>
      </g>
     </g>
    </g>
    <g id="text_16">
     <!-- y -->
     <g transform="translate(14.798438 158.3335) rotate(-90) scale(0.1 -0.1)">
      <defs>
       <path id="DejaVuSans-79" d="M 2059 -325 
Q 1816 -950 1584 -1140 
Q 1353 -1331 966 -1331 
L 506 -1331 
L 506 -850 
L 844 -850 
Q 1081 -850 1212 -737 
Q 1344 -625 1503 -206 
L 1606 56 
L 191 3500 
L 800 3500 
L 1894 763 
L 2988 3500 
L 3597 3500 
L 2059 -325 
z
" transform="scale(0.015625)"/>
      </defs>
      <use xlink:href="#DejaVuSans-79"/>
     </g>
    </g>
   </g>
   <g id="line2d_29">
    <path d="M 68.393665 148.213084 
L 76.550814 148.11765 
L 84.707964 147.976975 
L 87.970823 148.140182 
L 91.233683 148.501786 
L 99.390832 149.657449 
L 101.022262 149.738493 
L 102.653692 149.706585 
L 104.285122 149.542734 
L 105.916552 149.236976 
L 107.547982 148.790589 
L 110.810842 147.544926 
L 115.705131 145.376145 
L 117.336561 144.792098 
L 118.967991 144.378685 
L 120.599421 144.190514 
L 122.230851 144.270959 
L 123.862281 144.647418 
L 125.49371 145.327401 
L 127.12514 146.295838 
L 128.75657 147.513936 
L 132.01943 150.430954 
L 135.28229 153.36384 
L 136.91372 154.564539 
L 138.545149 155.443879 
L 140.176579 155.908595 
L 141.808009 155.887122 
L 143.439439 155.336722 
L 145.070869 154.249037 
L 146.702299 152.653518 
L 148.333729 150.618316 
L 149.965159 148.248406 
L 154.859448 140.614906 
L 156.490878 138.47343 
L 158.122308 136.824133 
L 159.753738 135.81628 
L 161.385168 135.565238 
L 163.016598 136.142037 
L 164.648027 137.565399 
L 166.279457 139.796967 
L 167.910887 142.74025 
L 169.542317 146.243611 
L 174.436607 157.944344 
L 176.068037 161.390581 
L 177.699467 164.177388 
L 179.330896 166.078637 
L 180.962326 166.914863 
L 182.593756 166.568179 
L 184.225186 164.993769 
L 185.856616 162.226976 
L 187.488046 158.38527 
L 189.119476 153.664689 
L 192.382335 142.704004 
L 194.013765 137.141472 
L 195.645195 132.014186 
L 197.276625 127.683028 
L 198.908055 124.473945 
L 200.539485 122.654344 
L 202.170915 122.412332 
L 203.802345 123.840333 
L 205.433774 126.924393 
L 207.065204 131.540162 
L 208.696634 137.456117 
L 210.328064 144.34413 
L 215.222354 166.519135 
L 216.853784 172.812796 
L 218.485213 177.783762 
L 220.116643 181.050743 
L 221.748073 182.328414 
L 223.379503 181.450261 
L 225.010933 178.384444 
L 226.642363 173.241351 
L 228.273793 166.271998 
L 229.905223 157.857043 
L 236.430942 120.559705 
L 238.062372 113.361651 
L 239.693802 108.142399 
L 241.325232 105.313649 
L 242.956662 105.146274 
L 244.588091 107.74751 
L 246.219521 113.048105 
L 247.850951 120.800632 
L 249.482381 130.589459 
L 251.113811 141.852105 
L 256.008101 177.379684 
L 257.63953 187.250229 
L 259.27096 194.938549 
L 260.90239 199.876956 
L 262.53382 201.657661 
L 264.16525 200.064426 
L 265.79668 195.092702 
L 267.42811 186.95656 
L 269.05954 176.081568 
L 270.690969 163.083647 
L 277.216689 106.635992 
L 278.848119 95.981555 
L 280.479549 88.36129 
L 282.110979 84.353002 
L 283.742408 84.318013 
L 285.373838 88.371625 
L 287.005268 96.368734 
L 288.636698 107.905962 
L 290.268128 122.340615 
L 293.530988 156.359008 
L 296.793848 190.157594 
L 298.425277 204.222667 
L 300.056707 215.078219 
L 301.688137 221.944697 
L 303.319567 224.278913 
L 304.950997 221.815135 
L 306.582427 214.589257 
L 308.213857 202.944077 
L 309.845287 187.514869 
L 311.476716 169.195691 
L 316.371006 108.546135 
L 318.002436 90.710716 
L 319.633866 76.118932 
L 321.265296 65.780471 
L 322.896726 60.455898 
L 324.528155 60.601976 
L 326.159585 66.335312 
L 327.791015 77.4171 
L 329.422445 93.260414 
L 331.053875 112.96009 
L 334.316735 159.041267 
L 335.948165 182.56819 
L 337.579594 204.418728 
L 339.211024 223.161816 
L 340.842454 237.534554 
L 342.473884 246.526788 
L 344.105314 249.451225 
L 345.736744 245.994268 
L 347.368174 236.243877 
L 348.999604 220.692219 
L 350.631033 200.212393 
L 352.262463 176.010227 
L 357.156753 96.515252 
L 358.788183 73.323045 
L 360.419613 54.439794 
L 362.051043 41.152115 
L 363.682472 34.414125 
L 365.313902 34.780042 
L 366.945332 42.361148 
L 368.576762 56.810335 
L 370.208192 77.335738 
L 371.839622 102.743123 
L 375.102482 161.851338 
L 376.733911 191.87997 
L 378.365341 219.674087 
L 379.996771 243.4253 
L 381.628201 261.550914 
L 383.259631 272.799 
L 384.891061 276.334125 
L 386.522491 271.797924 
L 388.153921 259.340191 
L 389.78535 239.617999 
L 391.41678 213.762356 
L 393.04821 183.314002 
L 393.04821 183.314002 
" clip-path="url(#p2a8bd75cf6)" style="fill: none; stroke: #ff0000; stroke-width: 2; stroke-linecap: square"/>
   </g>
   <g id="line2d_30">
    <path d="M 68.393665 148.213084 
L 70.025095 147.439258 
L 71.656525 146.812845 
L 73.287954 146.465767 
L 74.919384 146.500328 
L 76.550814 146.977722 
L 78.182244 147.910192 
L 79.813674 149.257623 
L 81.445104 150.92891 
L 86.339393 156.369076 
L 87.970823 157.706229 
L 89.602253 158.496383 
L 91.233683 158.590901 
L 92.865113 157.888158 
L 94.496543 156.345956 
L 96.127973 153.989589 
L 97.759403 150.914731 
L 99.390832 147.284678 
L 104.285122 135.49748 
L 105.916552 132.232617 
L 107.547982 129.784369 
L 109.179412 128.397485 
L 110.810842 128.255756 
L 112.442271 129.46436 
L 114.073701 132.037189 
L 115.705131 135.890353 
L 117.336561 140.842604 
L 118.967991 146.622969 
L 123.862281 165.225608 
L 125.49371 170.445675 
L 127.12514 174.491403 
L 128.75657 177.024947 
L 130.388 177.795227 
L 132.01943 176.659538 
L 133.65086 173.598462 
L 135.28229 168.722782 
L 136.91372 162.271588 
L 138.545149 154.601399 
L 143.439439 129.143933 
L 145.070869 121.684404 
L 146.702299 115.642557 
L 148.333729 111.47261 
L 149.965159 109.521532 
L 151.596588 110.001818 
L 153.228018 112.97244 
L 154.859448 118.329545 
L 156.490878 125.807823 
L 158.122308 134.992796 
L 161.385168 156.224456 
L 163.016598 166.944696 
L 164.648027 176.80201 
L 166.279457 185.12899 
L 167.910887 191.338193 
L 169.542317 194.963252 
L 171.173747 195.693097 
L 172.805177 193.39681 
L 174.436607 188.137219 
L 176.068037 180.172029 
L 177.699467 169.942113 
L 179.330896 158.047405 
L 184.225186 119.960221 
L 185.856616 109.184985 
L 187.488046 100.642899 
L 189.119476 94.936829 
L 190.750906 92.500149 
L 192.382335 93.564696 
L 194.013765 98.141194 
L 195.645195 106.013723 
L 197.276625 116.748859 
L 198.908055 129.71921 
L 205.433774 186.952981 
L 207.065204 197.995569 
L 208.696634 206.080714 
L 210.328064 210.635398 
L 211.959494 211.302923 
L 213.590924 207.969851 
L 215.222354 200.777648 
L 216.853784 190.118003 
L 218.485213 176.611876 
L 220.116643 161.073334 
L 225.010933 112.199586 
L 226.642363 98.625212 
L 228.273793 87.989233 
L 229.905223 81.014246 
L 231.536652 78.199365 
L 233.168082 79.784893 
L 234.799512 85.73317 
L 236.430942 95.727071 
L 238.062372 109.186483 
L 239.693802 125.301944 
L 244.588091 179.157484 
L 246.219521 195.155328 
L 247.850951 208.376683 
L 249.482381 217.947475 
L 251.113811 223.216051 
L 252.745241 223.79749 
L 254.376671 219.601288 
L 256.008101 210.840458 
L 257.63953 198.02125 
L 259.27096 181.913952 
L 262.53382 143.943347 
L 265.79668 106.276955 
L 267.42811 90.576723 
L 269.05954 78.372947 
L 270.690969 70.471841 
L 272.322399 67.413218 
L 273.953829 69.433682 
L 275.585259 76.448893 
L 277.216689 88.056224 
L 278.848119 103.557793 
L 280.479549 122.002577 
L 285.373838 183.005709 
L 287.005268 200.940847 
L 288.636698 215.672036 
L 290.268128 226.244823 
L 291.899558 231.962407 
L 293.530988 232.431688 
L 295.162418 227.590227 
L 296.793848 217.712261 
L 298.425277 203.393262 
L 300.056707 185.513901 
L 303.319567 143.681148 
L 304.950997 122.35443 
L 306.582427 102.554877 
L 308.213857 85.541551 
L 309.845287 72.402674 
L 311.476716 63.985673 
L 313.108146 60.842259 
L 314.739576 63.192141 
L 316.371006 70.907739 
L 318.002436 83.520986 
L 319.633866 100.25184 
L 321.265296 120.05678 
L 326.159585 184.987837 
L 327.791015 203.908854 
L 329.422445 219.365965 
L 331.053875 230.375785 
L 332.685305 236.234467 
L 334.316735 236.562942 
L 335.948165 231.33157 
L 337.579594 220.862585 
L 339.211024 205.810147 
L 340.842454 187.119248 
L 344.105314 143.683435 
L 345.736744 121.676583 
L 347.368174 101.333807 
L 348.999604 83.938487 
L 350.631033 70.587623 
L 352.262463 62.122249 
L 353.893893 59.074133 
L 355.525323 61.63216 
L 357.156753 69.630548 
L 358.788183 82.559628 
L 360.419613 99.598492 
L 362.051043 119.667401 
L 366.945332 184.898391 
L 368.576762 203.737134 
L 370.208192 219.041706 
L 371.839622 229.856711 
L 373.471052 235.51301 
L 375.102482 235.669386 
L 376.733911 230.333247 
L 378.365341 219.859094 
L 379.996771 204.924922 
L 381.628201 186.488127 
L 384.891061 143.949362 
L 386.522491 122.540543 
L 388.153921 102.843846 
L 389.78535 86.091357 
L 391.41678 73.323164 
L 393.04821 65.322353 
L 393.04821 65.322353 
" clip-path="url(#p2a8bd75cf6)" style="fill: none; stroke-dasharray: 5.55,2.4; stroke-dashoffset: 0; stroke: #0000ff; stroke-width: 1.5"/>
   </g>
   <g id="patch_3">
    <path d="M 52.160938 288.430125 
L 52.160938 22.318125 
" style="fill: none; stroke: #000000; stroke-width: 0.8; stroke-linejoin: miter; stroke-linecap: square"/>
   </g>
   <g id="patch_4">
    <path d="M 409.280938 288.430125 
L 409.280938 22.318125 
" style="fill: none; stroke: #000000; stroke-width: 0.8; stroke-linejoin: miter; stroke-linecap: square"/>
   </g>
   <g id="patch_5">
    <path d="M 52.160938 288.430125 
L 409.280938 288.430125 
" style="fill: none; stroke: #000000; stroke-width: 0.8; stroke-linejoin: miter; stroke-linecap: square"/>
   </g>
   <g id="patch_6">
    <path d="M 52.160938 22.318125 
L 409.280938 22.318125 
" style="fill: none; stroke: #000000; stroke-width: 0.8; stroke-linejoin: miter; stroke-linecap: square"/>
   </g>
   <g id="text_17">
    <!-- Plot of f(x) and g(x) -->
    <g transform="translate(172.325938 16.318125) scale(0.12 -0.12)">
     <defs>
      <path id="DejaVuSans-50" d="M 1259 4147 
L 1259 2394 
L 2053 2394 
Q 2494 2394 2734 2622 
Q 2975 2850 2975 3272 
Q 2975 3691 2734 3919 
Q 2494 4147 2053 4147 
L 1259 4147 
z
M 628 4666 
L 2053 4666 
Q 2838 4666 3239 4311 
Q 3641 3956 3641 3272 
Q 3641 2581 3239 2228 
Q 2838 1875 2053 1875 
L 1259 1875 
L 1259 0 
L 628 0 
L 628 4666 
z
" transform="scale(0.015625)"/>
      <path id="DejaVuSans-6c" d="M 603 4863 
L 1178 4863 
L 1178 0 
L 603 0 
L 603 4863 
z
" transform="scale(0.015625)"/>
      <path id="DejaVuSans-6f" d="M 1959 3097 
Q 1497 3097 1228 2736 
Q 959 2375 959 1747 
Q 959 1119 1226 758 
Q 1494 397 1959 397 
Q 2419 397 2687 759 
Q 2956 1122 2956 1747 
Q 2956 2369 2687 2733 
Q 2419 3097 1959 3097 
z
M 1959 3584 
Q 2709 3584 3137 3096 
Q 3566 2609 3566 1747 
Q 3566 888 3137 398 
Q 2709 -91 1959 -91 
Q 1206 -91 779 398 
Q 353 888 353 1747 
Q 353 2609 779 3096 
Q 1206 3584 1959 3584 
z
" transform="scale(0.015625)"/>
      <path id="DejaVuSans-74" d="M 1172 4494 
L 1172 3500 
L 2356 3500 
L 2356 3053 
L 1172 3053 
L 1172 1153 
Q 1172 725 1289 603 
Q 1406 481 1766 481 
L 2356 481 
L 2356 0 
L 1766 0 
Q 1100 0 847 248 
Q 594 497 594 1153 
L 594 3053 
L 172 3053 
L 172 3500 
L 594 3500 
L 594 4494 
L 1172 4494 
z
" transform="scale(0.015625)"/>
      <path id="DejaVuSans-20" transform="scale(0.015625)"/>
      <path id="DejaVuSans-66" d="M 2375 4863 
L 2375 4384 
L 1825 4384 
Q 1516 4384 1395 4259 
Q 1275 4134 1275 3809 
L 1275 3500 
L 2222 3500 
L 2222 3053 
L 1275 3053 
L 1275 0 
L 697 0 
L 697 3053 
L 147 3053 
L 147 3500 
L 697 3500 
L 697 3744 
Q 697 4328 969 4595 
Q 1241 4863 1831 4863 
L 2375 4863 
z
" transform="scale(0.015625)"/>
      <path id="DejaVuSans-28" d="M 1984 4856 
Q 1566 4138 1362 3434 
Q 1159 2731 1159 2009 
Q 1159 1288 1364 580 
Q 1569 -128 1984 -844 
L 1484 -844 
Q 1016 -109 783 600 
Q 550 1309 550 2009 
Q 550 2706 781 3412 
Q 1013 4119 1484 4856 
L 1984 4856 
z
" transform="scale(0.015625)"/>
      <path id="DejaVuSans-29" d="M 513 4856 
L 1013 4856 
Q 1481 4119 1714 3412 
Q 1947 2706 1947 2009 
Q 1947 1309 1714 600 
Q 1481 -109 1013 -844 
L 513 -844 
Q 928 -128 1133 580 
Q 1338 1288 1338 2009 
Q 1338 2731 1133 3434 
Q 928 4138 513 4856 
z
" transform="scale(0.015625)"/>
      <path id="DejaVuSans-61" d="M 2194 1759 
Q 1497 1759 1228 1600 
Q 959 1441 959 1056 
Q 959 750 1161 570 
Q 1363 391 1709 391 
Q 2188 391 2477 730 
Q 2766 1069 2766 1631 
L 2766 1759 
L 2194 1759 
z
M 3341 1997 
L 3341 0 
L 2766 0 
L 2766 531 
Q 2569 213 2275 61 
Q 1981 -91 1556 -91 
Q 1019 -91 701 211 
Q 384 513 384 1019 
Q 384 1609 779 1909 
Q 1175 2209 1959 2209 
L 2766 2209 
L 2766 2266 
Q 2766 2663 2505 2880 
Q 2244 3097 1772 3097 
Q 1472 3097 1187 3025 
Q 903 2953 641 2809 
L 641 3341 
Q 956 3463 1253 3523 
Q 1550 3584 1831 3584 
Q 2591 3584 2966 3190 
Q 3341 2797 3341 1997 
z
" transform="scale(0.015625)"/>
      <path id="DejaVuSans-6e" d="M 3513 2113 
L 3513 0 
L 2938 0 
L 2938 2094 
Q 2938 2591 2744 2837 
Q 2550 3084 2163 3084 
Q 1697 3084 1428 2787 
Q 1159 2491 1159 1978 
L 1159 0 
L 581 0 
L 581 3500 
L 1159 3500 
L 1159 2956 
Q 1366 3272 1645 3428 
Q 1925 3584 2291 3584 
Q 2894 3584 3203 3211 
Q 3513 2838 3513 2113 
z
" transform="scale(0.015625)"/>
      <path id="DejaVuSans-64" d="M 2906 2969 
L 2906 4863 
L 3481 4863 
L 3481 0 
L 2906 0 
L 2906 525 
Q 2725 213 2448 61 
Q 2172 -91 1784 -91 
Q 1150 -91 751 415 
Q 353 922 353 1747 
Q 353 2572 751 3078 
Q 1150 3584 1784 3584 
Q 2172 3584 2448 3432 
Q 2725 3281 2906 2969 
z
M 947 1747 
Q 947 1113 1208 752 
Q 1469 391 1925 391 
Q 2381 391 2643 752 
Q 2906 1113 2906 1747 
Q 2906 2381 2643 2742 
Q 2381 3103 1925 3103 
Q 1469 3103 1208 2742 
Q 947 2381 947 1747 
z
" transform="scale(0.015625)"/>
      <path id="DejaVuSans-67" d="M 2906 1791 
Q 2906 2416 2648 2759 
Q 2391 3103 1925 3103 
Q 1463 3103 1205 2759 
Q 947 2416 947 1791 
Q 947 1169 1205 825 
Q 1463 481 1925 481 
Q 2391 481 2648 825 
Q 2906 1169 2906 1791 
z
M 3481 434 
Q 3481 -459 3084 -895 
Q 2688 -1331 1869 -1331 
Q 1566 -1331 1297 -1286 
Q 1028 -1241 775 -1147 
L 775 -588 
Q 1028 -725 1275 -790 
Q 1522 -856 1778 -856 
Q 2344 -856 2625 -561 
Q 2906 -266 2906 331 
L 2906 616 
Q 2728 306 2450 153 
Q 2172 0 1784 0 
Q 1141 0 747 490 
Q 353 981 353 1791 
Q 353 2603 747 3093 
Q 1141 3584 1784 3584 
Q 2172 3584 2450 3431 
Q 2728 3278 2906 2969 
L 2906 3500 
L 3481 3500 
L 3481 434 
z
" transform="scale(0.015625)"/>
     </defs>
     <use xlink:href="#DejaVuSans-50"/>
     <use xlink:href="#DejaVuSans-6c" x="60.302734"/>
     <use xlink:href="#DejaVuSans-6f" x="88.085938"/>
     <use xlink:href="#DejaVuSans-74" x="149.267578"/>
     <use xlink:href="#DejaVuSans-20" x="188.476562"/>
     <use xlink:href="#DejaVuSans-6f" x="220.263672"/>
     <use xlink:href="#DejaVuSans-66" x="281.445312"/>
     <use xlink:href="#DejaVuSans-20" x="316.650391"/>
     <use xlink:href="#DejaVuSans-66" x="348.4375"/>
     <use xlink:href="#DejaVuSans-28" x="383.642578"/>
     <use xlink:href="#DejaVuSans-78" x="422.65625"/>
     <use xlink:href="#DejaVuSans-29" x="481.835938"/>
     <use xlink:href="#DejaVuSans-20" x="520.849609"/>
     <use xlink:href="#DejaVuSans-61" x="552.636719"/>
     <use xlink:href="#DejaVuSans-6e" x="613.916016"/>
     <use xlink:href="#DejaVuSans-64" x="677.294922"/>
     <use xlink:href="#DejaVuSans-20" x="740.771484"/>
     <use xlink:href="#DejaVuSans-67" x="772.558594"/>
     <use xlink:href="#DejaVuSans-28" x="836.035156"/>
     <use xlink:href="#DejaVuSans-78" x="875.048828"/>
     <use xlink:href="#DejaVuSans-29" x="934.228516"/>
    </g>
   </g>
   <g id="legend_1">
    <g id="patch_7">
     <path d="M 59.160938 59.674375 
L 111.23125 59.674375 
Q 113.23125 59.674375 113.23125 57.674375 
L 113.23125 29.318125 
Q 113.23125 27.318125 111.23125 27.318125 
L 59.160938 27.318125 
Q 57.160938 27.318125 57.160938 29.318125 
L 57.160938 57.674375 
Q 57.160938 59.674375 59.160938 59.674375 
z
" style="fill: #ffffff; opacity: 0.8; stroke: #cccccc; stroke-linejoin: miter"/>
    </g>
    <g id="line2d_31">
     <path d="M 61.160938 35.416562 
L 71.160938 35.416562 
L 81.160938 35.416562 
" style="fill: none; stroke: #ff0000; stroke-width: 2; stroke-linecap: square"/>
    </g>
    <g id="text_18">
     <!-- f(x) -->
     <g transform="translate(89.160938 38.916562) scale(0.1 -0.1)">
      <use xlink:href="#DejaVuSans-66"/>
      <use xlink:href="#DejaVuSans-28" x="35.205078"/>
      <use xlink:href="#DejaVuSans-78" x="74.21875"/>
      <use xlink:href="#DejaVuSans-29" x="133.398438"/>
     </g>
    </g>
    <g id="line2d_32">
     <path d="M 61.160938 50.094687 
L 71.160938 50.094687 
L 81.160938 50.094687 
" style="fill: none; stroke-dasharray: 5.55,2.4; stroke-dashoffset: 0; stroke: #0000ff; stroke-width: 1.5"/>
    </g>
    <g id="text_19">
     <!-- g(x) -->
     <g transform="translate(89.160938 53.594687) scale(0.1 -0.1)">
      <use xlink:href="#DejaVuSans-67"/>
      <use xlink:href="#DejaVuSans-28" x="63.476562"/>
      <use xlink:href="#DejaVuSans-78" x="102.490234"/>
      <use xlink:href="#DejaVuSans-29" x="161.669922"/>
     </g>
    </g>
   </g>
  </g>
 </g>
 <defs>
  <clipPath id="p2a8bd75cf6">
   <rect x="52.160938" y="22.318125" width="357.12" height="266.112"/>
  </clipPath>
 </defs>
</svg>